<svg id="eYZdaEDb1rF1" xmlns="http://www.w3.org/2000/svg" xmlns:xlink="http://www.w3.org/1999/xlink" viewBox="0 0 477 492" shape-rendering="geometricPrecision" text-rendering="geometricPrecision"><style><![CDATA[#eYZdaEDb1rF2 {animation: eYZdaEDb1rF2_c_o 3000ms linear infinite normal forwards}@keyframes eYZdaEDb1rF2_c_o { 0% {opacity: 0} 26.666667% {opacity: 0} 46.666667% {opacity: 0.97} 53.333333% {opacity: 0.97} 60% {opacity: 0} 100% {opacity: 0}} #eYZdaEDb1rF5 {animation: eYZdaEDb1rF5_c_o 3000ms linear infinite normal forwards}@keyframes eYZdaEDb1rF5_c_o { 0% {opacity: 0} 16.666667% {opacity: 0} 36.666667% {opacity: 1} 53.333333% {opacity: 1} 60% {opacity: 0} 100% {opacity: 0}} #eYZdaEDb1rF8 {animation: eYZdaEDb1rF8_c_o 3000ms linear infinite normal forwards}@keyframes eYZdaEDb1rF8_c_o { 0% {opacity: 0} 10% {opacity: 0} 26.666667% {opacity: 1} 53.333333% {opacity: 1} 60% {opacity: 0} 100% {opacity: 0}} #eYZdaEDb1rF10 {animation: eYZdaEDb1rF10_c_o 3000ms linear infinite normal forwards}@keyframes eYZdaEDb1rF10_c_o { 0% {opacity: 0} 16.666667% {opacity: 1} 53.333333% {opacity: 1} 60% {opacity: 0} 100% {opacity: 0}}]]></style><g id="eYZdaEDb1rF2" opacity="0"><g><path d="M206.484,263.121c1.898964-4.003085,5.965071-6.524246,10.39503-6.445362s8.403729,2.743207,10.15897,6.811362c1.150908,2.670881,1.226139,5.682995.21,8.408-18.340727,43.431238-5.960188,93.752245,30.438,123.716c3.753349,2.81308,5.375281,7.654592,4.074,12.161-.854527,2.951628-2.874842,5.427642-5.595,6.857-2.721266,1.426966-5.906533,1.683347-8.821.71-1.44213-.483035-2.771991-1.252041-3.91-2.261-44.121273-36.280281-59.151278-97.244747-36.95-149.876v-.081ZM370.581,434.142c-5.768383,1.899246-12.006783-1.097871-14.129-6.788-2.122522-5.688866.625739-12.038646,6.226-14.385c6.466076-2.391828,12.681583-5.412999,18.557-9.02c5.839602-3.623157,11.315093-7.802614,16.35-12.48c2.761578-2.553921,6.616127-3.560062,10.273625-2.681692s6.634762,3.525211,7.935375,7.054692c1.575877,4.273719.422692,9.075897-2.922,12.168-6.12433,5.666482-12.786508,10.722396-19.892,15.096-7.12676,4.345896-14.655109,7.996046-22.481,10.9l.082.136Zm104.147-172.82c-.752987,6.185152-6.37665,10.589354-12.562,9.838-6.184893-.753997-10.588401-6.377791-9.837-12.563.409-2.943.681-5.096.818-6.485.136-1.39.381-3.597.654-6.486.574682-4.401231,3.677257-8.056218,7.926722-9.338069s8.855652.047785,11.768278,3.397069c1.912505,2.196977,2.900827,5.048707,2.758,7.958-.163,1.598-.409,3.915-.736,6.948-.354,3.107-.626,5.45-.817,6.922l.027-.191ZM292.892,132.974c-2.665815-5.471378-.522894-12.071248,4.848608-14.93298s12.044479-.958635,15.098392,4.30598l2.207,4.333c.72889,1.443385,1.437625,2.896859,2.126,4.36c2.337492,5.568349-.125243,11.989857-5.586717,14.567197s-11.983968.396077-14.796283-4.948197c-.601489-1.297684-1.219204-2.587785-1.853-3.87l-2.044-3.815Zm17.549,48.887c-.578997-2.930727.030366-5.971418,1.693949-8.452727s4.245017-4.199832,7.176051-4.777273c6.102282-1.202768,12.0245,2.768059,13.229,8.87c8.850895,44.191359,2.433195,90.078515-18.202,130.146-2.255428,4.414567-1.637045,9.752063,1.568,13.534c3.204868,3.781144,8.367038,5.267654,13.092,3.77c3.103439-.977103,5.678868-3.16941,7.139-6.077c3.888866-7.532705,7.337329-15.284736,10.328-23.217c2.983991-7.861987,5.522025-15.886071,7.602-24.034c1.914341-5.519125,7.725649-8.66354,13.39293-7.24672s9.315181,6.926037,8.40707,12.69672c-4.599016,18.018143-11.217249,35.459563-19.729,51.993-9.373795,15.779403-29.392296,21.564189-45.738,13.217-16.346599-8.345864-23.400737-27.952849-16.118-44.8c18.364821-35.566432,24.064262-76.328421,16.159-115.568v-.054ZM101.846,420.19c1.776429,4.08658.98063,8.83594-2.030861,12.12026s-7.674204,4.48799-11.899139,3.07174c-2.772724-.928282-5.076646-2.896977-6.426-5.491-10.115317-21.316081-17.442291-43.846526-21.8-67.035-1.131486-4.095955.140588-8.47998,3.288731-11.334152s7.635492-3.69176,11.601277-2.165439s6.733708,5.15626,7.155992,9.384591c3.997319,21.264651,10.738668,41.920306,20.055,61.449h.055ZM77.566,313.288c0,6.215413-5.038587,11.254-11.254,11.254s-11.254-5.038587-11.254-11.254c-.055983-28.387608,4.423809-56.601858,13.27-83.576c1.956469-5.914694,8.337306-9.123469,14.252-7.167s9.123469,8.337306,7.167,14.252c-4.034935,12.327128-7.078289,24.956997-9.101,37.769-2.046595,12.824345-3.076468,25.790378-3.08,38.777v-.055ZM321.531,466.842c2.984657.062836,5.822374,1.30762,7.89,3.461c2.068143,2.153495,3.19567,5.040626,3.134339,8.025755s-1.30649,5.823513-3.461339,7.890245c-1.066813,1.022939-2.324325,1.82617-3.701,2.364-1.377382.537046-2.846927.797997-4.325.768-2.034,0-4.051-.082-6.049-.245-2.098,0-4.088-.245-5.995-.436-4.40118-.575157-8.055944-3.677926-9.337739-7.927419s.047679-8.855682,3.396739-11.768581c2.196724-1.91226,5.048047-2.900566,7.957-2.758l5.26.408c1.798,0,3.542.164,5.231.218Zm84.746-280.839c-.750779-6.18519,3.653142-11.808493,9.838-12.562c6.185165-.751955,11.80903,3.651959,12.562,9.837c2.416122,21.01575,2.54387,42.231679.381,63.275-2.142844,21.011786-6.57446,41.726639-13.216,61.776-2.091925,5.717909-8.342841,8.74513-14.126,6.841-5.783942-1.905135-9.011576-8.057204-7.292-13.899c12.282128-37.132721,16.32692-76.495481,11.853-115.35v.082ZM284.036,81.744c3.955785,4.625689,3.528456,11.555521-.965683,15.660145s-11.434225,3.903658-15.683317-.454145c-7.037776-7.706258-14.753066-14.765247-23.053-21.092-8.346905-6.348025-17.237723-11.947075-26.569-16.732-5.855484-3.01971-11.878241-5.703391-18.039-8.038-6.124205-2.343348-12.373829-4.344763-18.72-5.995-6.018782-1.558931-9.635598-7.700356-8.08-13.72c1.557977-6.019501,7.700189-9.636781,13.72-8.08c7.153581,1.826203,14.195652,4.064267,21.091,6.703c18.008762,6.862783,34.932861,16.288599,50.249,27.986c9.37407,7.128575,18.092102,15.080892,26.05,23.762ZM110.048,114.608c5.875958-1.206857,11.669129,2.3946,13.187,8.198c1.519371,5.805178-1.773477,11.783463-7.492,13.602-15.371782,4.018864-29.259858,12.382193-40.002,24.089-3.020502,3.585924-7.947187,4.924459-12.367,3.36-2.895733-1.025081-5.246483-3.189489-6.506687-5.990907s-1.32029-5.99627-.166313-8.843093c.570836-1.409022,1.421284-2.687754,2.5-3.759c6.761952-7.451098,14.573709-13.876959,23.189-19.075c8.613115-5.205432,17.926864-9.151434,27.658-11.718v.137ZM22.032,406.565c-1.599689-5.874445,1.751078-11.958328,7.570961-13.746361s12.008516,1.365076,13.983039,7.124361l1.554,4.96c.163.518.735,2.153,1.69,4.878c1.839394,5.840009-1.303921,12.083106-7.090797,14.083391s-12.114559-.969079-14.274203-6.698391l-1.744-5.314c-.817-2.534-1.39-4.278-1.689-5.287Z" fill="#0e0e67"/></g></g><g id="eYZdaEDb1rF5" opacity="0"><g><path d="M135.88,467.796c3.909429,4.763704,3.265446,11.784642-1.445345,15.757671s-11.739743,3.423358-15.775655-1.233671c-2.262-2.725-4.415-5.45-6.486-7.984s-3.951-5.205-6.131-8.175c-3.563414-5.056923-2.37982-12.041566,2.650675-15.642194s12.02368-2.468598,15.661325,2.535194c1.810061,2.558945,3.691126,5.06692,5.641,7.521c1.931519,2.449564,3.893336,4.875083,5.885,7.276v-.055ZM383.142,231.02c-.206205,4.021612-2.545099,7.626702-6.133528,9.454011s-7.879666,1.598431-11.253365-.600212-5.31585-6.032069-5.093107-10.052799c3.399083-65.461193-21.926121-129.148512-69.35-174.4-2.280494-2.031718-3.639438-4.901498-3.766095-7.953135s.989805-6.024159,3.094095-8.237865c2.103478-2.213823,5.014485-3.480466,8.068126-3.510617s5.989092,1.178762,8.135874,3.350617c52.253977,49.741588,80.130828,119.854254,76.298,191.896v.054ZM281.42,436.895c-5.833648-2.123736-8.847045-8.569111-6.735823-14.407299s8.550121-8.865399,14.392823-6.766701c10.235064,3.740494,20.992664,5.855438,31.882,6.268c2.98492.111421,5.803259,1.404293,7.834759,3.594081s3.109674,5.097036,2.997241,8.081919c-.234194,6.215297-5.461638,11.064459-11.677,10.832-6.597915-.276928-13.165545-1.051124-19.647-2.316-6.484447-1.268988-12.861359-3.03623-19.074-5.286h.027ZM105.007,204.342c-2.079534,4.053353-6.394866,6.456087-10.935715,6.088898s-8.414048-3.432077-9.815285-7.766898c-.917219-2.843811-.667221-5.935506.695-8.595c14.886413-28.338062,49.82585-39.389444,78.300832-24.766637s39.85011,49.458188,25.492168,78.067637c-4.395042,8.561021-7.989009,17.510121-10.736,26.733-2.69422,9.191612-4.518905,18.616025-5.45,28.149-.649477,6.151191-6.140284,10.626092-12.296,10.021-6.155092-.608335-10.666498-6.068641-10.103-12.228c1.073085-10.947609,3.180834-21.768947,6.295-32.319c3.112371-10.578212,7.20859-20.841693,12.235-30.656c4.638995-8.474256,5.65601-18.463723,2.82-27.699-2.833863-9.235391-9.279631-16.933635-17.87333-21.346295s-18.605919-5.165201-27.76267-2.086705c-9.156884,3.077843-16.681716,9.72491-20.866,18.432v-.028Z" fill="#2babc9"/></g></g><g id="eYZdaEDb1rF8" transform="translate(0 0.000001)" opacity="0"><path d="M271.529,5.77c4.062327,2.37528,6.222854,7.023203,5.42,11.66-.525411,3.036572-2.269891,5.726143-4.828305,7.444091s-5.708141,2.314788-8.717695,1.651909c-1.489448-.328768-2.89679-.956067-4.137-1.844l-3.133-2.043-3.243-1.962c-5.025485-3.336905-6.53647-10.036947-3.429653-15.207839s9.731882-6.982566,15.037653-4.112161c.899.517,2.071,1.253,3.543,2.18.981.599,2.152,1.362,3.488,2.234ZM245.042,325.496c-.870283-3.0202-.436946-6.266784,1.195-8.953c1.630675-2.686964,4.311044-4.569241,7.392-5.191c3.080648-.621461,6.280836.072814,8.827,1.915c2.544963,1.843543,4.203908,4.666578,4.576,7.787c1.786156,8.727304,5.51132,16.94146,10.9,24.035c19.029467,25.024187,54.270922,30.869112,80.36,13.328c8.321896-5.596249,15.090165-13.209822,19.673-22.13.674921-1.314773,1.601846-2.483962,2.728-3.441c4.092042-3.477936,10.071323-3.579989,14.279667-.24372s5.473039,9.18116,3.020333,13.95872c-12.808019,25.070941-37.614578,41.787977-65.66,44.248-28.04628,2.459321-55.384333-9.687105-72.358-32.149-7.402756-9.800942-12.52337-21.131342-14.988-33.164h.055ZM21.269,152.949c-1.361477,2.65653-3.722934,4.663053-6.564425,5.577769s-5.930028.662624-8.585575-.700769c-2.656194-1.362096-4.662422-3.723676-5.577248-6.565113s-.663295-5.929923.699248-8.585887c1.566411-3.063287,3.238413-6.071423,5.013-9.019c1.799-2.998,3.706-5.859,5.614-8.584c2.607422-3.734395,7.20704-5.531248,11.655387-4.553207s7.87007,4.538516,8.670613,9.022207c.523856,2.941073-.141958,5.969793-1.851,8.42-1.717,2.48-3.324,4.932-4.769,7.358-1.51335,2.525801-2.949022,5.097339-4.305,7.711v-.081ZM10.45,269.497c.816033-6.112372,6.398344-10.430198,12.519598-9.683704s10.502261,6.27936,9.825402,12.408704c-1.602755,12.652331-2.367089,25.396802-2.288,38.15.078217,12.762674.988145,25.506682,2.724,38.151.588154,4.009729-1.020285,8.026737-4.213274,10.522469s-7.47954,3.086418-11.228532,1.54729-6.383941-4.971397-6.902194-8.990759c-3.683357-27.235159-3.829905-54.832259-.436-82.105Zm261.814,183.72c5.830361,2.161317,8.806519,8.638233,6.649,14.47-1.036845,2.800537-3.143813,5.074434-5.857328,6.321387s-5.811262,1.3648-8.611672.327613c-3.354703-1.211932-6.663309-2.54785-9.919-4.005-3.161-1.418-6.404-2.916-9.701-4.606-44.120522-22.598941-76.633937-62.793317-89.515-110.662-.626-2.29-1.28-4.987-1.962-8.176-.572-2.725-1.117-5.45-1.58-8.175-1.03146-4.592145.905244-9.34094,4.854-11.902c2.585698-1.677604,5.74606-2.221921,8.744-1.506c2.997789.717949,5.570362,2.633104,7.118,5.299.76497,1.319276,1.254181,2.780104,1.438,4.294.408,2.344.872,4.742,1.417,7.167.528815,2.37662,1.119348,4.739085,1.771,7.085c5.550127,20.630277,15.356319,39.870687,28.788,56.484c13.43096,16.61392,30.190178,30.23317,49.2,39.982c2.725,1.389,5.45,2.725,8.502,4.033s5.886,2.507,8.665,3.515v.054ZM206.675,102.781c-2.530401-1.603658-4.319695-4.147258-4.973897-7.070726s-.119671-5.987085,1.485897-8.516274c3.340918-5.26693,10.318816-6.828518,15.586-3.488c66.395342,42.346638,89.66227,128.262161,53.709,198.326-1.813033,3.621732-5.43047,5.991674-9.474909,6.207426s-7.89348-1.755885-10.081533-5.164178-2.378398-7.728737-.498558-11.316248c30.632421-59.68546,10.811768-132.878304-45.752-168.951v-.027Z" fill="#3151a2"/></g><g id="eYZdaEDb1rF10" transform="translate(.000001 0)" opacity="0"><path d="M63.479,113.381c-3.328937,2.317202-7.645342,2.66969-11.306123.923286s-6.102769-5.323035-6.396392-9.368407s1.606291-7.937148,4.976515-10.193879c36.00681-24.566749,80.791002-32.587706,123.086-22.045c4.107294.773097,7.447986,3.758478,8.676153,7.753368s.141544,8.341379-2.822081,11.288321-7.316179,4.00901-11.304072,2.758311c-36.05386-9.009834-74.239991-2.155913-104.91,18.83v.054ZM367.856,78.746c-1.558085-2.558091-2.035796-5.630483-1.327981-8.540888s2.543137-5.420264,5.101981-6.977112c2.558228-1.557547,5.630445-2.034952,8.540692-1.327176s5.420091,2.542747,6.977308,5.101176c6.624748,10.870582,12.541043,22.157371,17.712,33.79c5.203927,11.616084,9.64599,23.558679,13.298,35.752c1.456254,4.416623.055856,9.274352-3.528,12.238-2.349584,1.942409-5.385841,2.850111-8.416,2.516-3.030369-.332498-5.796947-1.877943-7.669-4.284-.926899-1.19042-1.605618-2.554659-1.996-4.012-3.359127-11.288947-7.446017-22.348437-12.235-33.109-4.800229-10.730454-10.297992-21.135049-16.458-31.147ZM34.648,190.199c1.726929-4.348717,5.958344-7.180667,10.637-7.119c3.066222.039383,5.983958,1.326725,8.08,3.565c2.096071,2.237017,3.192056,5.230398,3.036,8.292-.078,1.516-.46,3-1.125,4.364-2.182827,4.989214-4.263263,10.022603-6.24,15.097-1.894311,5.067115-3.656904,10.182501-5.286,15.341-.570944,3.175428-2.474869,5.954139-5.23,7.633-2.754654,1.67846-6.095828,2.098109-9.18,1.153-4.717841-1.44346-7.948709-5.787344-7.974-10.721-.009096-1.594931.320146-3.173659.966-4.632c1.777524-5.572391,3.676308-11.105372,5.695-16.595c1.989-5.45,4.196-10.9,6.621-16.35v-.028ZM143.238,21.14c6.177391.250917,11.003304,5.424833,10.824176,11.604723s-5.296623,11.06559-11.478176,10.958277h-7.112c-4.564019.0519-8.709504-2.651775-10.502005-6.849383s-.878692-9.061748,2.315005-12.322617c2.092606-2.138634,4.949062-3.35841,7.941-3.391h8.012ZM442.41,371.413c-2.019798,4.081257-6.300728,6.542388-10.843999,6.234277s-8.45272-3.324689-9.903001-7.641277c-.953815-2.828527-.744081-5.920205.583-8.594c4.282693-8.668298,8.173947-17.524553,11.662-26.542c3.458294-8.938886,6.504499-18.031786,9.129-27.25.810297-2.890101,2.734484-5.340472,5.35-6.813c2.616247-1.473231,5.710962-1.845589,8.602-1.035c2.890274.810537,5.340673,2.735105,6.813,5.351c1.471681,2.61639,1.84397,5.710168,1.035,8.601-2.962048,9.89919-6.27953,19.68853-9.946,29.349-3.693047,9.672074-7.858387,19.157142-12.481,28.421v-.081ZM152.067,139.16c-2.952776-.548524-5.566552-2.247956-7.265958-4.724201s-2.345134-5.526315-1.795042-8.478799c.548755-2.952592,2.248284-5.566122,4.724502-7.265321s5.526159-2.344793,8.478498-1.794679c5.01.94,9.947,2.242,14.769,3.896c4.814839,1.660627,9.504512,3.664089,14.033,5.995c37.14152,19.089576,59.525727,58.29213,57.088,99.981-.584054,6.033794-5.831117,10.527996-11.883,10.178-6.05256-.351877-10.744847-5.424404-10.625-11.486c2.193832-37.180823-20.71149-71.249272-55.971-83.249-3.766066-1.315264-7.62871-2.335673-11.553-3.052Zm-25.233,76.355c1.831876-3.618478,5.465317-5.97496,9.516292-6.171829s7.895793,1.796187,10.069908,5.219982s2.342801,7.751202.4418,11.333847c-42.876916,83.400938-22.221206,185.381083,49.73,245.524c4.785823,3.995504,5.426504,11.114177,1.431,15.9s-11.114177,5.426504-15.9,1.431c-80.023985-66.963568-102.983666-180.4298-55.289-273.237Z" fill="#f87301"/></g></svg>