<?xml version="1.0" encoding="utf-8"?>
<!-- Generator: Adobe Illustrator 25.2.1, SVG Export Plug-In . SVG Version: 6.00 Build 0)  -->
<svg version="1.1" id="Layer_1" xmlns="http://www.w3.org/2000/svg" xmlns:xlink="http://www.w3.org/1999/xlink" x="0px" y="0px"
	 viewBox="0 0 775 440.6" style="enable-background:new 0 0 775 440.6;" xml:space="preserve">
<style type="text/css">
	.st0{opacity:0.41;fill:#1D71B8;}
	.st1{fill-rule:evenodd;clip-rule:evenodd;fill:#7FC1EB;}
	.st2{fill-rule:evenodd;clip-rule:evenodd;fill:#4770B6;}
	.st3{fill-rule:evenodd;clip-rule:evenodd;fill:#E9D8B9;}
	.st4{fill-rule:evenodd;clip-rule:evenodd;fill:#F0BF97;}
	.st5{fill-rule:evenodd;clip-rule:evenodd;fill:#16364A;}
	.st6{fill-rule:evenodd;clip-rule:evenodd;fill:#FCC133;}
	.st7{fill-rule:evenodd;clip-rule:evenodd;fill:#EE8805;}
	.st8{fill:#FFFFFF;}
	.st9{fill:#95CEF2;}
	.st10{fill:#376992;}
	.st11{fill:#4770B6;}
	.st12{fill:#4EB8A1;}
	.st13{fill:#3BB7D5;}
	.st14{fill:#78C5B9;}
	.st15{fill:#FCC133;}
	.st16{fill:#16364A;}
	.st17{fill:#F8AD13;}
	.st18{fill:#EE8805;}
	.st19{fill:#356891;}
	.st20{fill:#E9D8B9;}
	.st21{fill:#F0BF97;}
	.st22{fill-rule:evenodd;clip-rule:evenodd;fill:#D1D9E8;}
	.st23{fill-rule:evenodd;clip-rule:evenodd;fill:#78C5B9;}
	.st24{fill:#D1D9E8;}
	.st25{fill:#DD105A;}
	.st26{fill:#A61641;}
	.st27{clip-path:url(#SVGID_2_);}
	.st28{fill:#D5EDFC;}
	.st29{fill-rule:evenodd;clip-rule:evenodd;fill:#356891;}
	.st30{fill:#E9F5FE;}
</style>
<g>
	<path class="st0" d="M265.8,309.8c-105.1,0-190.3,8.6-190.3,19.2c0,7.1,38.3,13.3,95.3,16.6C92.6,349,41,354.9,41,361.6
		c0,7.6,89,13.4,185,16.5c-30.5,0-30.1,8.7-30.1,10.5c0,10.6,85.2,14.6,190.3,14.6c180.3,0,295.6-30.8,295.6-51.9
		C681.9,325.2,550.7,309.8,265.8,309.8z"/>
	<g>
		<circle class="st1" cx="156.3" cy="157" r="5.1"/>
		<path class="st2" d="M156.3,151.9c-0.6,0-1.1,0.1-1.7,0.3c0.3,0,0.5-0.1,0.8-0.1c5.2,0,5.2,8.1,0,8.1c-3.3,0-4.5-3.3-3.6-5.7
			c-0.4,0.7-0.7,1.6-0.7,2.5c0,2.8,2.3,5.1,5.1,5.1s5.1-2.3,5.1-5.1C161.4,154.2,159.2,151.9,156.3,151.9z"/>
		<path class="st1" d="M154,150.9c-3,1.7-4,5.6-2.2,8.5c1,1.7,2.7,2.7,4.5,3c-1.3-0.5-2.4-1.4-3.1-2.7c-1.7-3-0.8-6.8,2.2-8.5
			c1.3-0.7,2.7-1,4-0.8C157.7,149.8,155.7,149.9,154,150.9z"/>
		<path class="st1" d="M155.8,157.9c-10.8,2.4-8.2,12.1-7.7,14.7c1,5,5.6,8,11.5,8c7.8,0,12.1-11.6,7.7-18.3
			C164,157.1,158.9,157.2,155.8,157.9z"/>
		<path class="st2" d="M155.8,157.9c-0.1,0-0.1,0-0.2,0.1c0.1,0,0.3,0,0.4,0.1c0.9,0.2,1.7,0.6,2.5,1.2c2,0.9,3.4,2.5,4.3,4.6
			c0.8,1.9,1,3.9,0.5,6c-0.5,2.2-2.3,4.1-4.2,5.2c-2,1.1-4.6,1.8-6.9,1c-1.4-0.5-2.6-1.2-3.6-2.2c-0.1-0.1-0.1-0.2-0.2-0.2
			c1.4,4.4,5.7,6.9,11.2,6.9c7.8,0,12.1-11.6,7.7-18.3C164,157.1,158.9,157.2,155.8,157.9z"/>
		<path class="st3" d="M156.3,275.3c-0.1,1.8-0.7,3.4-0.8,4.9c-0.1,1.6,0.2,3.2,0.3,5.3c0.2,2.2-0.8,3.9-1.2,5.8
			c-1.9,9.7,0.1,12.2-2,19.6c-0.7,2.4-1.4,3.3-1.8,4.3c-0.5,1.4,0,3.1-0.5,5.9c-0.7,3.6-2.4,7.3-1.8,9.3c0.6,1.9,5,3.8,6.6,3.8
			c2,0,1-2.3,0.9-3.7c-0.1-2.2,0.7-14.9,1.4-17.7c2.1-8,7-16.6,7.9-24.2c0.9-7.2,0.3-8.6,2-17.1c0.2-1,3.7-23.8,3.9-32.9l-14.8,7.5
			C156.8,254.9,157,266.1,156.3,275.3z"/>
		<path class="st4" d="M163,268.5c1.8,7.7,0.1,15.4-2.3,22.9c-2.6,8.4-4.9,12.2-5.3,21.1c-0.1,2.8-2.1,4.9-2.8,7.7
			c-1.1,4,1.5,7.8-1.3,12.8c1.4,0.7,2.9,1.2,3.7,1.2c2,0,1-2.3,0.9-3.7c-0.1-2.2,0.7-14.9,1.4-17.7c2.1-8,7-16.6,7.9-24.2
			c0.9-7.2,0.3-8.6,2-17.1c0.2-1,3.7-23.8,3.9-32.9l-10.1,5.1C162.6,251.9,161.1,260.3,163,268.5z"/>
		<path class="st5" d="M156,328.2c-0.3,1.5-3.3,2.3-4.8,0.3c-1-1.3-1.3-3-1.6-4.5c0-0.1,0-0.1,0-0.2c-0.7,2.6-1.6,5-1.2,6.5
			c0.6,1.9,5,3.8,6.6,3.8c2,0,1-2.3,0.9-3.7C156,330,156,329.2,156,328.2z"/>
		<path class="st3" d="M164.3,187.2c-4.1,1.1-3.2-3.4-3.7-7.4l-5.6,2c0.7,3.8,1.2,6.4-1.8,7.6c-1.8,0.7-4.6,1.5-6.1,1.9
			c-2.7,0.6-4.1,20-4.7,25.1l4.8,1.9c1.1-3.7,3.2-9.8,3.2-14.2l18.2-2.4l-1.5-6.2l6.1-2.2C171.5,186.8,169.2,185.9,164.3,187.2z"/>
		<path class="st4" d="M167.4,192.6c0,0,4.8,17.8,7.1,22.7l5.3-1.9c-1.1-4.6-3.5-17.1-5.9-22.6L167.4,192.6z"/>
		<path class="st4" d="M164.3,187.2c-4.1,1.1-3.2-3.4-3.7-7.4l-5.6,2c0.1,0.7,0.3,1.4,0.4,2.1c1.5,2.3,4.5,5.8,7.2,5.5
			c1.4-0.2,2.7-1.8,4.4-2c1.1-0.1,2.3,0,3.5,0.3C168.9,186.5,167,186.5,164.3,187.2z"/>
		<path class="st4" d="M147.8,204.6c-0.1,0.9-0.1,1.8-0.1,2.8c-0.1,2.8-2.1,7.5-2.8,10l2.2,0.9c0.9-3,3-8.2,3.1-11.6
			C149.5,206.4,148,204.8,147.8,204.6z"/>
		<path class="st3" d="M160.9,164.4c-1.2-0.6-2.8-0.8-4.9-0.5c-4.9,0.9-6,5.1-5.7,9.3c0.2,2.4,0.3,4.4,1.4,6.3
			c0.5,0.9,3.8,4.7,6.1,4.7c2.5,0,5.5-4.2,6-5.4c0.5-1.3,0.7-2.9,0.8-5.4c0-0.2,0-0.3,0-0.5C164.6,169.2,163.6,165.8,160.9,164.4z"
			/>
		<path class="st4" d="M160.9,164.4c-1.7-0.5-3.8-0.5-6.6,0.4c0,0,2.3,7.6,10.3,8C164.6,169.2,163.6,165.8,160.9,164.4z"/>
		<path class="st3" d="M165.5,318.4c-0.4-1-0.9-1.6-1.6-4c-2.1-7.4-0.3-10.1-2.2-19.8c-0.4-1.9-1.4-3.6-1.2-5.8
			c0.1-2.1,0.4-3.7,0.3-5.3c-0.1-1.5-0.6-3-0.8-4.9c-0.5-5.9-0.5-8.3-0.4-16.8c0.1-13,1.2-19.1-3.5-28.8l-9.8,0l-1.2,8.8
			c0.3,10,1.3,20.8,3.5,32.2c1.6,8.5,2.1,11.5,3.6,18.5c1.7,7.5,8,25.9,8.2,28.9c0.1,0.8,0.2,11,0.4,12.3c0.2,1.4,0,4.8,1.9,4.8
			c1.6,0,4.7-3.6,5.1-4.9c0.6-2-1.2-5.7-1.8-9.3C165.6,321.5,166,319.8,165.5,318.4z"/>
		<path class="st5" d="M162.4,333.6c-0.7,0-1.1-0.7-1.6-1.1c0,0.6,0,1,0.1,1.2c0.2,1.4,0,4.8,1.9,4.8c1.6,0,4.7-3.6,5.1-4.9
			c0.5-1.5-0.4-3.8-1.1-6.4C166.7,327.7,165.8,333.6,162.4,333.6z"/>
		<path class="st6" d="M174.6,223.1c-2.9,0.8-20.7,3.6-27.2-0.2c-0.5,2.8-5.6,6.8-5.6,15.8c0,13.2,5.6,39.6,5.6,39.6
			s12.4,3.4,21.2,0.5c3.6-17.1,8.5-35,7-48C175.6,230.5,174.7,223.5,174.6,223.1z"/>
		<path class="st7" d="M174.7,223.2c0,0.1-0.1,0.1-0.1,0.2c-6.2,6.4-16,6.6-14.3,10c1.2,2.4,7.7,6.9,9.3,8.4c3.5,3.2-6.4,7.5-5.7,15
			c0.3,3.5-1.5,9.8-2.4,13.2c-1.4,5.2-8.8,4.8-12.1,8.9c3.8,0.8,12.6,2.3,19.3,0c3.6-17.1,8.5-35,7-48
			C175.6,230.6,174.8,224.3,174.7,223.2z"/>
		<path class="st6" d="M174.5,189c-3-3.3-9.6-2.4-9.6-2.4c-2.4,2.2-7.2,5.6-7.2,5.6l-7-2.2c0,0-7,0.2-7.8,6.8
			c-0.3,2.2,4.2,1.9,4.2,5.1c0,2.1,1.1,3.9,2.6,5.1c0.6,3.5,0.7,7.3,0.5,9.2c-0.2,4.2-2.7,3.8-2.3,6.2c0.7,4,24,3.1,26,0.8
			c2.1-2.5,0-17.1-0.9-24.8C172.5,193.8,176.2,190.8,174.5,189z"/>
		<path class="st7" d="M174.5,189c-3-3.3-9.6-2.4-9.6-2.4c-2.4,2.2-7.2,5.6-7.2,5.6l-7-2.2c0,0-2,0.1-4,1.1c0.6,0.2,1.9,0.7,2.8,1.2
			c9.2,4.8,8.2,11.5,5.4,12.9c-1.9,0.9,4.6,7.4,4.6,13.1c0,2.4,5.7,0,7.7-1.5c1.8-1.4,3-0.1,1.2,1.3c-3.3,2.5-6.5,5-12.4,5.1
			c-1.4,0-3.7,0.5-5,1.1c6.6,1.6,21.3,0.7,22.8-1.1c2.1-2.5,0-17.1-0.9-24.8C172.5,193.8,176.2,190.8,174.5,189z M170.6,200.6
			c-0.8,1.1-1.4,2.8-1.1,4.2c0.5,2.2-1.1,2.9-3,1.7c-1.1-0.7-5.3,1.8-7.7,1.4c-2.2-0.4-0.7-1.4,0.1-1.3c2.5,0.3,7.6-5.4,8.6-7.9
			c0.5-1.3,2.6-1.8,3.4-0.9C171.6,198.2,171.2,199.7,170.6,200.6z"/>
		<g>
			<g>
				<path class="st4" d="M156.4,178.4c-0.2,0.2,0.3,0.4,0.6,0.4c0.1,0,0.3,0,0.4,0.1c0.2,0,0.4,0,0.6,0c0.1,0,0.3-0.1,0.4-0.1
					c0.2,0,0.7-0.1,0.6-0.4c-0.1-0.1-0.7-0.4-1.4-0.4C157,178,156.5,178.2,156.4,178.4z"/>
			</g>
		</g>
		<path class="st1" d="M153.6,163.1c0,0,3.2,9.5,15,8.3C168.5,171.4,167.1,159.1,153.6,163.1z"/>
		<path class="st3" d="M174.7,216.6c0,5.8,1.2,15.5-1.1,17.5c-1.3,1.2-1.6,1.8-2,3.4c-0.4,1.4,1.2,0.2,0.9,1.9
			c-0.1,1-0.9,3.9-0.6,4.1c0.7,0.4,1-0.5,1.2-1.5c0.4,0.3,1.1,0.2,1.2-0.4c0.6,0.2,1.2-0.2,1.4-0.7c0.8,0.2,1.3-0.3,1.4-1.5
			c0.1-1.2,0.7-3,1.2-6.2c0.6-4.2,4-14.6,0.9-21.2C178.6,210.6,174.7,210.2,174.7,216.6z"/>
		<path class="st4" d="M175,214c1.5,0,3.1,1.2,2.6,3c-1.6,6.9,3.1,20.8-5.5,24.8c-0.2,0.9-0.3,1.6-0.1,1.7c0.7,0.4,1-0.5,1.2-1.5
			c0.4,0.3,1.1,0.2,1.2-0.4c0.6,0.2,1.2-0.2,1.4-0.7c0.8,0.2,1.3-0.3,1.4-1.5c0.1-1.2,0.7-3,1.2-6.2c0.6-4.2,3.9-14.7,0.8-21.3
			C178.7,210.7,175,209.8,175,214z"/>
		<path class="st3" d="M170.7,237.7c-0.2,0.6-0.4,1.3-1.1,2.6c0.8,0.1,1.5-0.5,1.8-1.6c0.8-0.5,1.3-1,1.5-1.5l-0.2-2.2L170.7,237.7z
			"/>
		<path class="st3" d="M168.7,220.6c-0.8-0.1-2.1,0.1-1.4-1c0.9-1.3-3.3-0.5-4.7,0.6c-0.7,0.5-1.4,0.3-2.1,0.3
			c-3.1-0.1-7.3-2.3-13.2-3.1c-2-0.3-3.1-0.8-5.1-1.1c-0.3,2,0.3,4.2,1.1,4.9c3.1,2.9,6.6,2.5,9.6,2.7c3.1,0.2,3.9-0.1,8.2,0.5
			c3.2,0.5,5.1,0.7,6.3,0.6c1.1-0.1,1.7-0.1,1.8-0.9c0.6,0,1.1-0.5,1.1-1.1c0.7,0,0.9-0.6,0.8-1.1c1,0.1,2,0.1,1.8-0.8
			C172.7,220.8,169.8,220.7,168.7,220.6z"/>
		<path class="st4" d="M163.4,224.2c-1-0.3-1.9-1.1-2.8-1.6c-5.2,0-6.9-3.9-18.3-3.9c0.2,1.1,0.6,2.1,1.1,2.5
			c3.1,2.9,6.6,2.5,9.6,2.7c3.1,0.2,3.9-0.1,8.2,0.5c3.2,0.5,5.1,0.7,6.3,0.6c1-0.1,1.6-0.1,1.7-0.6
			C167.2,224.7,165.2,224.7,163.4,224.2z"/>
		<g>
			<g>
				<path class="st8" d="M139.5,218.3C139.5,218.3,139.5,218.3,139.5,218.3c0,0.6,0.5,1.1,1.1,1.1h25.8c0.6,0,1.1-0.5,1.1-1.1
					c0,0,0,0,0,0H139.5z"/>
			</g>
			<path class="st8" d="M170.2,195.6l-5.4,22.4c-0.1,0.4,0,1.4,1.3,1.4l21.8-0.3v-25l-15.8,0C171.3,194.1,170.4,194.8,170.2,195.6z"
				/>
			<path class="st9" d="M199.8,194.2H172c-0.3,0-0.5,0.2-0.6,0.5l-5.7,24c-0.1,0.4,0.2,0.8,0.6,0.8h26c1.4,0,2.7-0.9,3.1-2.3
				l5.2-22.2C200.6,194.6,200.3,194.2,199.8,194.2z"/>
		</g>
		<path class="st3" d="M164,219.6l1.8,0.6c0.6-0.1,1.5-0.3,2.2-0.9c1.2,0.1,1.9-0.5,2-1.3c-1.5,0.3-2.2,0.3-2.8,0.3L164,219.6z"/>
	</g>
	<g>
		<path class="st10" d="M135.9,327.6c7.3-4.7,19.8-5.6,26.4,1.5c3.3,0.5,6.5,1.8,9.7,3.1c-2.3-1.6-4.8-3.5-5.3-6.5
			c-0.7-3.5,2.2-3.8,4.4-2.4c2.3,1.5,1.8,2.9,2.4,5.5c0.5,2.2,1.3,3.9,1.5,4.8c1,0.5,2,0.9,3,1.4c1.5,0.7,3.1,1.4,4.6,2
			c-0.5-0.5-1.1-1.1-1.3-1.3c-2.1-2.5-4.9-5.3-5.6-8.9c-0.7-3.5,2-6.2,4.9-4.4c2.5,1.4,1.5,5.2,1.6,7.9c0.1,3.4,1,5,1.5,7.2
			c2.6,1.1,5.2,2.2,7.8,3.2c-2.6-2.2-5-5.3-5.9-7.6c-1.6-4.1,2.8-5,5.4-3.9c2.9,1.2,2.9,4.5,3.4,7.4c0.4,2.2,1.2,4.5,1.7,5.8
			c1.4,0.5,2.7,1,4.1,1.5c1.1,0.4,2.1,0.7,3.2,1.1c-1.9-2-3.4-4.5-4-6.9c-0.3-1.4-1.1-4,0-5.2c1.4-1.5,3.5-0.1,4.5,1.2
			c2.4,3.2,1.5,8.7,3,12.1c2.7,0.9,5.5,1.7,8.2,2.4c-2.3-1.7-4.6-4.6-5.5-6.4c-0.9-1.6-1.4-3.9-0.4-5.4c1.1-1.7,3.5-1.2,4.8,0.2
			c1.3,1.5,1.9,3.6,2.5,5.7c0.6,2.1,2.1,4.7,2.4,6.9c1.3,0.3,2.6,0.6,3.9,0.9c0.2,0.1,0.5,0.1,0.7,0.1c-0.6-0.6-1.1-1.3-1.4-1.7
			c-1.2-1.4-2.2-3.2-2.2-5.2c0-2,1.4-4,3.1-3.7c1.4,0.2,2.3,1.9,2.6,3.5c0.3,1.6,0.1,3.3,0.4,4.9c0.2,1,0.6,2,0.9,2.9
			c3,0.5,5.9,0.9,8.9,1.3c-1.6-1.6-3.5-4.9-3.8-5.7c-0.5-1.5-0.8-3.1-0.4-4.6c0.4-1.5,1.8-2.7,3.1-2.4c1.4,0.4,2.1,2.1,2.3,3.8
			c0.1,1,1,7.5,0.9,9.3c2.9,0.3,5.8,0.7,8.7,1c1.1,0.1,1.1,1.9,0,2c-3.8,0.3-7.6,0.1-11.5-0.4c-0.6,0.9-1.7,1.7-2.1,2.7
			c-0.3,0.7-0.6,1.5-0.9,2.3H226c0,0,0-0.1,0.1-0.1c1.5-2.2,3.8-4.3,6.3-5.3c-2.4-0.4-4.8-0.8-7.2-1.3c-0.2,0.1-0.4,0.2-0.7,0.3
			c-1.1,0.5-2.2,1.1-3,2c-0.6,0.8-1,1.8-1.5,2.8c-0.3,0.5-0.6,1.1-0.9,1.6h-7.9c0.2-0.5,0.5-0.9,0.8-1.3c1.9-2.5,4.6-4.1,7.4-5
			c1.2-0.4,2.5-0.6,3.8-0.8c-3-0.6-6-1.4-9-2.2c-1,0.7-2,1.5-2.8,2.6c-1.1,1.4-2.1,2.8-3.2,4.1c-0.7,0.9-1.4,1.8-2.2,2.6h-9.5
			c-0.2-0.3-0.3-0.6-0.3-0.9c-0.2-1.2,0.7-2.3,1.5-3.1c2.4-2.4,5.2-4.2,8.2-5.2c0.9-0.3,2.7-0.9,4.5-1.1c-2.7-0.8-5.4-1.7-8-2.6
			c-3,1-5.8,2.2-8.3,4.6c-1.4,1.3-2.7,2.9-4.1,4.2c-1.4,1.3-3.1,2.3-4.9,2.4c-1.4,0-3-0.8-3.3-2.5c-0.1-0.5,0-1.1,0.1-1.6
			c0.9-3.5,4.1-5.3,7.1-6.2c3.1-0.9,7.5-1.9,11.1-1.6c-3.4-1.2-6.8-2.6-10.2-4c-1.9,0.7-3.7,2.2-5.2,3.6c-2.7,2.4-5.1,5.1-8.1,7
			c-1.9,1.2-4.1,2-6.1,1.3c-0.3-0.1-0.7-0.3-0.9-0.5c-0.4-0.5-0.4-1.4-0.2-2.1c0.5-1.7,1.6-3.1,2.8-4.2c3-2.8,6.9-4.4,10.7-5.1
			c1.9-0.3,3.9-0.5,5.8-0.4c-3.3-1.4-6.5-2.8-9.7-4.3c-0.2-0.1-0.4-0.2-0.7-0.3c-1.6,1.8-3.4,3.4-5.1,5.1c-1.7,1.7-3.6,3.5-5.8,3.4
			c-0.7,0-1.4-0.2-1.9-0.8c-0.9-0.9-1-2.6-0.5-3.9c0.5-1.3,1.5-2.2,2.5-2.9c1.3-0.9,4.3-2.4,7-2.9c-1.8-0.9-3.7-1.8-5.6-2.6
			c0,0,0,0.1,0.1,0.1c-2.7,2.2-4.9,5.3-7.7,7.3c-2.2,1.6-4.9,2.1-7.4,1.5c-0.7-0.2-1.5-0.6-1.7-1.4c-0.1-0.7,0.2-1.3,0.6-1.9
			c1.9-2.9,4.9-4.7,7.9-5.6c1.1-0.3,3.9-1.1,6-1c-3.2-1.2-6.5-2.1-9.8-2.2c0,0-0.1,0-0.1,0c-1.9,0.2-3.9,0.6-5.8,1.3
			c-2.3,0.9-4.6,2.1-6.9,2.8c-2.4,0.7-4.9,1-7.2,0c-1.6-0.7-3.2-2.8-2.5-4.6C134.4,328.6,135.2,328.1,135.9,327.6z"/>
		<path class="st11" d="M270.7,330.2c8.1,6.4,20.4,15.1,21.9,25.7c0.2,1.3-0.1,3.1-0.6,4.8h-34.9c-17.3-3.9-38.3-12.4-54.1-33.8
			c-6.3-8.6-13.4-27.3-41.3-35.8C193.9,284.7,249.2,313.3,270.7,330.2z"/>
		<path class="st12" d="M212.8,256c2.6,2.5,4.1,7.6,7,8.6c2.2,0.8,4.6-0.8,7.2,1c2.4,1.6,4.7,4.3,6.5,6.9c3.7,5.4,5.1,11.6,7.8,17.7
			c2.5,5.7,7.7,6.4,12.1,9.4c6.6,4.4,11.9,11.2,16.3,19c2.5,4.4,4.4,12.5,7.6,15.2c2.2,1.9,5.5,2,7.9,4.2c2.7,2.6,4.7,6.8,6.2,10.7
			c1.9,4.9,1.5,8.9-0.4,12h-18.8c-5.2-2.6-10.2-6.1-13-10.7c-2.3-3.8-1.2-4.7-4.2-6c-5.1-2.2-9.8-1.6-14-7.2
			c-3.1-4.2-6.1-10.4-7.5-16.1c-1-4.1-0.3-6.5-2.8-9.2c-3.9-4.3-8.5-5.5-11.9-11c-2.4-3.9-4-8.6-5.5-13.2c-1-3.1-0.5-5.6-1.1-8.4
			c-1-5.1-5.4-6.8-7.9-11c-2.7-4.7-4.3-10.9-5.7-16.5C202.9,248.9,209.2,252.6,212.8,256z"/>
		<path class="st13" d="M292.9,308.9c1.2-5.4,2.4-12.3,6.1-16.7c0.6,2.7,1.2,5.4,1.6,8.1c0.3,1.9-0.1,3.9,0.3,5.7
			c1.8-7,4-12.8,7.7-19.1c3-5.2,5.7-12.4,10.2-16.5c0.8,5.9,0.3,13-0.4,18.9c-1.1,8.3-2.2,16.5-3.3,24.8c-1.7,12.5-5,24.2-8.7,36.2
			c-0.8,2.5-1.5,6.6-2.8,10.3h-13.4c-0.2-1.3-0.3-2.6-0.5-3.8c-1.4-8.3-1.9-17.5-0.6-25.7C290.2,323.7,291.2,316.3,292.9,308.9z"/>
		<path class="st14" d="M203.1,202.6c10.9-4.9,9.1,15.8,20.1,28.9c1.8,1.6,3.6,3.3,5.3,5c-1.3-3.8-2-9.5-0.4-11.1
			c4.1-4,4.5,4.2,4.4,6.1c-0.1,2.7-0.8,5.7-1.5,7.6c2.4,2.5,4.6,5,6.8,7.6c-0.3-0.9-0.6-1.8-0.8-2.4c-1.7-4.6-4.4-14.2,1.6-15.1
			c7.5-1.1,2.9,16.1,2.5,21.4c0.2,0.3,3.3,4.3,4.6,6c-1.5-6-2.1-16.4,3-17.4c10.8-2.1-0.8,13.2-1.2,19.6c2.2,3.3,5.4,8.4,7.4,11.8
			c-0.8-3.4-1.3-7-0.5-10.1c1-4.3,4.6-8.5,6.7-2.8c1.2,3.3-0.8,6.5-1.9,9.6c-1,2.7-1.5,5.4-1.9,7.5c1.7,3.1,3.3,6.3,4.7,9.5
			c-0.7-4.9-0.9-10.2,1.3-14.2c4.1-7.6,10.6-2.4,10.7,4c0.1,6.5-6.9,11.1-9.6,15.8c1.2,3,2.3,5.9,3.2,9c0.7-5.2,1.5-11,4.9-15
			c3.5-4.1,11.3-4.7,11.2,1.7c-0.2,7.8-11.7,9.7-15.6,14.8c1.3,4.1,2.4,8.2,3.4,12.4c0.8-4.1,2.2-8.3,3.7-11c3-5.3,9.1-3.1,9.8,2.2
			c1,7.6-8.6,10-12.3,14c0.5,2.3,0.9,4.5,1.3,6.8c0.5,2.6,1.2,6.3,1.6,8.9c1.1-4.5,3.2-10.1,5.6-12.2c5.1-4.5,10.5-0.1,7.8,5.8
			c-2.6,5.6-9.6,6.4-12.5,11c0.7,3.7,1.5,7.3,2.4,10.9c2.1-6.7,7.7-13.7,13.2-15c6.1-1.4,9,3.3,5.4,8.2c-2.6,3.6-13.4,6.4-17.6,10.6
			c0.7,2.6,1.5,5.2,2.4,7.7h-4.2c-0.3-0.8-0.6-1.7-0.9-2.5c-0.9-3.9-4.4-4.1-7.6-5c-3.7-1-20,6.7-16.8-7.1
			c2.7-11.7,16.5-0.7,22.4,5.4c-0.7-2.6-1.2-5.1-1.8-7.7c-1.1-2-2.8-3.8-6.7-5.3c-5.7-2.2-27.6,1-25.7-10
			c3.1-17.2,27.9,6.3,31.9,13.4c-0.9-4.5-2.8-15.2-2.9-16.1c-2-2.1-4.3-3.8-7.7-4.7c-3.6-1-15.1-2.9-13.3-9.4c1.8-6.5,11-0.9,13,1.4
			c2.7,3,5.4,5.9,7.4,9.4c-0.9-4.7-2-9.3-3.2-13.9c-11.1-7.8-31.3-4.4-27.1-14.4c4.8-11.4,16.5,7.7,26.6,12.7c-1.4-5-3-10-4.9-14.8
			c-1.3-0.4-3.2-1.6-5.6-2.3c-5.4-1.6-16,0.1-17.5-5.8c-2.1-8,5.5-8.2,10.3-5.9c5.3,2.6,8.3,7.1,11.8,11.4c0-0.1-0.1-0.1-0.1-0.2
			c-2.1-5.2-4.6-10.2-7.2-15.1c-7.3-2.6-25.8,2.1-22-8.7c2.9-8.4,16.3,2.2,21.3,7.4c-2.6-4.8-5.5-9.4-8.6-13.9
			c-0.8,0.5-2.5-0.6-5.9-0.5c-4.7,0.1-13.8,1.7-15.4-4.6c-1.1-4.4,6.2-4.8,9.6-3.9c3.8,1,7,4.7,10.2,6.8c-0.6-0.9-7.2-9.6-10-12.9
			c-7.5-1.7-27.9-1.5-25.7-9c2.5-8.4,16.9,1.9,24.1,7.1c-1-1.1-8.4-9.4-10.3-11.2c-7.8-2-14.7-5.9-18.5-8.8
			C197,218.5,190.2,208.4,203.1,202.6z"/>
	</g>
	<g>
		<path class="st11" d="M556.7,261.5c34.8-23.7,47.5-44.3,56.6-51.9c-18.4,63.6-89.2,163.4-120.2,135
			C470.9,324.2,508.6,294.3,556.7,261.5z"/>
		<path class="st15" d="M492.2,236.4c-0.1-14,7.8-72.7,25.1-111.1c-9.5,66.4,18.5,72.8,18.6,151c0,23.7-23.7,65-37.3,65
			c-40.5,0-16.9-122-29.7-148.7C479.8,209.7,490.5,233.2,492.2,236.4z"/>
		<path class="st16" d="M492.2,346.9c0.1,4.2-57.7,8.1-83.4-36.2c-20-34.5-32.9-37.8-43.9-44.1C440.8,267,491.8,335.9,492.2,346.9z"
			/>
		<path class="st13" d="M463.4,246.8c4.5,4.9,5.1,11.8,8.5,16.7c3.7,5.2,9.1,7.4,10.5,15.3c0.7,3.7,0.2,6.9,1,10.1
			c1,4.1,3.3,7.7,3.9,12.1c0.5,3.1-0.1,6.2,0.3,9.1c0.9,8.3,16,20.1,6.5,29.1c1.6,6.9,0.6,9.6-3,10.2c-7.7,1.3-8.5-6.6-10.6-10.7
			c-2.4-4.7-8.6-7.2-10.1-14c-0.8-3.5,0.7-8-0.1-11.1c-0.6-2.4-3.1-3.4-4.6-5.2c-4-4.8-5-10.8-5.5-16.8c-0.3-3.5,1.7-9.5,0.8-12.6
			c-1.7-5.9-8.1-6.6-7.4-15.6c0.2-2.7,2-6.2,1.6-8.9c-0.4-2.5-2.5-4.3-3.8-6.6c-3.5-6.5-1.7-14-2.6-21.1
			C454.5,232.8,457.8,240.7,463.4,246.8z"/>
		<path class="st14" d="M483.4,304.2c7.3,1.7,14.5,11,17.2,19.8c1.2-4.7,2.3-9.5,3.2-14.3c-3.8-6.1-12.9-7.1-16.3-14.5
			c-3.6-7.8,3.6-13.5,10.2-7.5c3.2,2.9,5.8,10.2,7.2,16.1c0.7-3.4,1.6-8.2,2.2-11.6c0.6-3,1.2-5.9,1.8-8.9
			c-4.8-5.2-17.4-8.4-16-18.4c0.9-7,8.9-9.8,12.8-2.8c2,3.5,3.8,9.1,4.8,14.4c1.3-5.5,2.8-10.8,4.6-16.2c-5-6.8-20-9.4-20.2-19.6
			c-0.2-8.3,10.1-7.4,14.6-2.1c4.5,5.3,5.4,12.8,6.3,19.6c1.3-3.9,2.8-7.9,4.3-11.7c-3.5-6.2-12.6-12.3-12.4-20.8
			c0.2-8.3,8.8-15.1,14-5.1c2.8,5.3,2.5,12.1,1.5,18.6c1.9-4.2,4-8.3,6.3-12.4c-0.4-2.7-1.1-6.2-2.4-9.8c-1.4-4.1-4-8.4-2.4-12.7
			c2.8-7.4,7.5-1.9,8.8,3.8c0.9,4.1,0.3,8.7-0.8,13.2c2.6-4.5,6.8-11.2,9.8-15.4c-0.4-8.4-15.5-28.6-1.3-25.7
			c6.7,1.4,5.8,15,3.8,22.8c1.7-2.3,5.8-7.5,6.1-7.9c-0.5-7-6.3-29.5,3.5-28c7.8,1.2,4.2,13.8,1.9,19.8c-0.3,0.8-0.7,1.9-1.1,3.1
			c2.9-3.4,6.3-7.5,9.5-10.7c-0.9-2.5-3.9-7.2-4-10.8c-0.1-2.5,2.1-13.2,7.4-8c2,2-3.7,13-1.6,18c2.3-2.2,8.1-9.4,10.4-11.5
			c14.5-17,9.9-41,24.2-34.5c17,7.7,7.9,21,2.1,25.3c-5,3.7-14.1,8.8-24.3,11.3c-2.5,2.4-12.3,13.2-13.6,14.6
			c9.5-6.8,28.4-20.1,31.6-9.1c2.8,9.8-23.9,9.4-33.7,11.5c-3.7,4.3-12.4,15.6-13.3,16.8c4.2-2.8,8.4-7.5,13.4-8.8
			c4.4-1.2,14-0.6,12.5,5.1c-2.1,8.1-14.1,5.9-20.2,5.8c-4.4-0.1-6.6,1.3-7.7,0.7c-4.1,5.9-7.9,11.9-11.4,18.2
			c6.6-6.8,24.2-20.5,28-9.5c4.9,14.2-19.3,7.9-29,11.2c-3.5,6.4-6.7,13-9.6,19.7c0,0.1-0.1,0.2-0.1,0.2c4.6-5.6,8.5-11.5,15.5-14.8
			c6.3-3,16.2-2.7,13.5,7.8c-2,7.7-15.8,5.4-23,7.4c-3.2,0.9-5.7,2.5-7.4,3c-2.5,6.3-4.6,12.8-6.5,19.4c13.3-6.4,28.8-31.3,35-16.4
			c5.4,13.2-21,8.5-35.6,18.7c-1.6,6-3,12.1-4.3,18.2c2.6-4.6,6.2-8.4,9.7-12.3c2.6-2.9,14.7-10.2,17-1.7
			c2.3,8.4-12.8,10.9-17.5,12.2c-4.4,1.2-7.4,3.3-10.1,6.1c-0.2,1.1-2.8,15.2-4,21.1c5.4-9.2,38.1-39.8,42-17.2
			c2.5,14.5-26.2,10-33.7,12.9c-5.1,2-7.3,4.3-8.8,6.9c-0.7,3.4-1.5,6.8-2.4,10.1c7.9-7.9,26.1-22.2,29.5-6.8
			c4,18.1-20.8,7.4-25.6,8.6c-4.2,1.1-5.2,1.8-6.5,7c-1.3,3.9-2.8,7.7-4.6,11.4c-1.3,2.6-5.4,0.5-4.3-2.2c2.1-5.3,3.8-10.6,5.3-16
			c-5.4-5.5-19.6-9.4-22.9-14C471.6,308.4,475.4,302.3,483.4,304.2z"/>
	</g>
	<g>
		<path class="st17" d="M610.3,185.1c-6.5-3.6-34.2-8.6-37.7-9.1c-4.7-0.7-5.5,7.2-4.1,8.9c1.9,2.2,6.8,5,15.4,7.1
			c6.6,1.7,19.4,7.3,23.7,2.6C610.4,191.7,617.3,189.1,610.3,185.1z"/>
		<path class="st18" d="M599.2,186.3c-6.6-1.6-11.8-1.9-23.4-3.7c-3.5-0.5-8.4,1.4-7.2,2.8c1.9,2.2,9.1,5,15.4,6.7
			c11.2,3,17.1,6.1,21.1,2.6C607.6,192.5,608.8,188.7,599.2,186.3z"/>
		<path class="st3" d="M553.2,156.5c-0.9-2.1-2.8-4.2-4.4-5.7c-0.9-0.9-2.7-2.3-3.5-3c-0.7-0.6-1.7,1-0.8,2
			c-0.6,0.2-1.2,1.6-0.7,2.2c-0.6,0.5-0.8,1.8-0.3,2.3c-0.8,0.7-0.7,1.7,0.4,2.7c1.1,1,2.2,2.4,5.3,5.1c0.5,0.4,1.3,1.5,1.8,2
			c0.8-1.1,3.7-4.2,4.7-5C555,158.4,553.6,157.6,553.2,156.5z"/>
		<path class="st4" d="M546,151.1c0,1.6-1.1,4.8-2.5,5.6c0,0,0,0,0,0c0.5,0.4,1.1,1,1.8,1.7c0.9,0.9,2.3,1.1,3.5,0.6
			c0.4-0.2,0.9-0.3,1.6-0.5c1.1-0.2,1.5-1.6,0.9-2.6C550.1,153.6,546.1,150.2,546,151.1z"/>
		<g>
			<g>
				<polygon class="st8" points="547,146.3 549.7,146.9 551.4,139.8 548.7,139.1 				"/>
				<path class="st19" d="M548.7,145.1c-1.4-0.3-2.7,0.5-3,1.9l-3.4,14.6c-0.3,1.4,0.5,2.7,1.9,3c1.4,0.3,2.7-0.5,3-1.9l3.4-14.6
					C550.9,146.8,550,145.4,548.7,145.1z"/>
			</g>
			<path class="st16" d="M565.6,118.8l-0.2-0.3c-2.1-3.2-5.4-5.5-9.2-6.4l-0.6-0.1l-0.2,0c-3.7-0.6-7.4,0.1-10.6,2.1
				c-6.9,4.3-9,13.5-4.8,20.5l0.2,0.4l0.2,0.3c3.4,5,9.5,7.5,15.4,6.3l0.3-0.1l0.4-0.1c1.5-0.4,3-1,4.3-1.8
				c6.9-4.4,9.1-13.3,4.9-20.3L565.6,118.8z M559.4,137c-1.1,0.8-2.3,1.3-3.6,1.6l-0.5,0.1l-0.5,0.1c-4.5,0.7-9.4-1.3-12.1-4.9
				l-0.3-0.4l-0.3-0.4c-3.5-5.6-1.8-13.1,3.9-17.1c2.5-1.7,5.6-2.3,8.8-1.7l0.4,0.1l0.5,0.1c3.1,0.8,5.8,2.8,7.5,5.3l0.2,0.4
				l0.2,0.4C566.7,126.2,564.8,133.3,559.4,137z"/>
		</g>
		<path class="st17" d="M570,171.8c-4.1-3.3-15.4-14.7-15.4-14.7s-2.8,2.6-6,6.8c0,0,13.5,15.2,18.5,20.3c7.6,7.8,12-0.9,11-4.2
			C577.1,176.9,572.6,173.9,570,171.8z"/>
		<path class="st18" d="M551.1,160.9c-0.8,0.9-1.6,1.9-2.5,3c0,0,13.5,15.2,18.5,20.3c6.2,6.3,11.2,3.2,11.1-1.2
			c-4.9-3.9-11.6-5.3-18.5-11.6C557.4,169.2,553.5,162.4,551.1,160.9z"/>
		<g>
			<path class="st20" d="M638.4,338.1c-0.1-0.4-7.8-2.6-7.9,0c-0.1,2.2,0.4,5.7-1.5,7.4c-2.2,2-10.5,6.3-14.3,6.9
				c-0.2,0.6,0.5,1,1,1.2c2.8,0.9,5.8,0.5,8.8,0.2c3.4-0.4,6.8-0.5,10.2-0.6c1.5,0,3.3-0.2,4.1-1.5c0.6-1,0.3-2.2,0.2-3.3
				C638.6,345,638.9,341.5,638.4,338.1z"/>
			<path class="st21" d="M638.4,338.1c0-0.2-1.9-0.8-3.8-1.1c0.1,0.2,0.3,0.5,0.4,0.7c3.1,7.4-3.5,13.1-9.8,16
				c3.2-0.3,6.3-0.5,9.5-0.5c1.5,0,3.3-0.2,4.1-1.5c0.6-1,0.3-2.2,0.2-3.3C638.6,345,638.9,341.5,638.4,338.1z"/>
			<path class="st13" d="M639,346.9c-1-0.7-7,4-14,4c0-0.9-0.9-2.5-2-2.1c-3.1,1.1-8.4,3-9,3.2c-2,0.8-1.2,4.1,0,4.1
				c1,0,7.2,0,10.8,0c2.1,0,5.3-1.9,8.6-1.9c3.7,0,4.8-0.1,5.2-0.3C642.1,352.3,640.7,348.2,639,346.9z"/>
			<path class="st11" d="M633.1,352c-2.5,0.1-10.2,1.1-11.5,1.4c-1.9,0.5-3.9,0.5-5.8,0c-0.9-0.2-1.7-0.6-2.4-1.1
				c-1.2,1.2-0.5,3.7,0.6,3.7h10.8c2.1,0,5.3-1.9,8.6-1.9c3.7,0,4.8-0.1,5.2-0.3c2.8-1.2,2.5-4,1.4-5.8
				C638.5,350.4,636.1,351.9,633.1,352z"/>
			<path class="st11" d="M632.1,356.1h6.8l1.7-4.3l-8,2.3C632.8,354.8,632.1,356.1,632.1,356.1z"/>
		</g>
		<g>
			<path class="st20" d="M576,336.2c-1.1,1.9-2.1,5.3-4.6,6c-2.9,0.9-12.2,1.1-15.8,0c-0.4,0.4,0,1.1,0.4,1.5c2.1,2.1,5,3,7.8,4
				c3.2,1.2,6.4,2.5,9.5,3.9c1.4,0.6,3.1,1.3,4.3,0.5c0.9-0.6,1.2-1.9,1.6-2.9c1.1-3.3,2.9-6.3,4-9.6
				C583.3,339.3,577.3,333.9,576,336.2z"/>
			<path class="st21" d="M580.2,337c0,0.3,0,0.5,0,0.8c-0.5,8-8.9,10.3-15.8,10.2c3,1.1,5.9,2.3,8.8,3.6c1.4,0.6,3.1,1.3,4.3,0.5
				c0.9-0.6,1.2-1.9,1.6-2.9c1.1-3.3,2.9-6.3,4-9.6C583.2,339.5,581.8,338.1,580.2,337z"/>
			<path class="st13" d="M565.5,345.3c0.4-0.8,0.3-2.6-0.9-2.8c-3.2-0.4-8.9-1-9.5-1c-2.1-0.1-2.8,3.2-1.8,3.7
				c0.9,0.4,6.5,3.1,9.7,4.7c1.9,0.9,5.6,0.6,8.6,2c3.3,1.6,4.4,2,4.9,2c3.8,0.1,4.4-4.2,3.4-6.1
				C579.3,346.7,571.8,348.3,565.5,345.3z"/>
			<path class="st11" d="M572.3,349.9c-2.3-1-9.6-3.5-11-3.7c-1.9-0.4-3.7-1.2-5.2-2.5c-0.7-0.6-1.3-1.3-1.7-2.1
				c-1.6,0.5-2,3.1-1.1,3.6l9.7,4.7c1.9,0.9,5.6,0.6,8.6,2c3.3,1.6,4.4,2,4.9,2c3,0.1,4-2.6,3.8-4.6
				C577.9,350.8,575,351.1,572.3,349.9z"/>
			<path class="st11" d="M569.7,353.1l6.1,2.9l3.4-3.2l-8.2-1.4C570.8,352.3,569.7,353.1,569.7,353.1z"/>
		</g>
		<path class="st19" d="M597.8,235.3c-5.6,19.7-20.7,89.5-25.7,104.4c1.9,3.5,6.7,5.4,11.1,4.7c3.1-5.3,31.6-82.3,37-101.4
			C620.4,242.2,603.7,235.9,597.8,235.3z"/>
		<path class="st16" d="M610.6,238.8c-2.7,9-0.1,19.9-6.5,27.2c-4,4.5-4.2,11.3-4.1,17.3c0,4.6-1.2,9.6-3.8,13.6
			c-2.8,4.2-5.5,6.9-6.1,12.1c-0.7,5.1-2.9,12.2-4,17.3c-2,9-8.2,7.5-11.8,15.9c2.3,1.9,5.7,2.7,9,2.2c3.1-5.3,31.6-82.3,37-101.4
			C620.3,242.6,615.8,240.7,610.6,238.8z"/>
		<path class="st19" d="M636,245c-4.5-0.8-24.3-3.1-26.5,0.9c-3.3,6.1,16.5,90.9,18.4,98c4,1.6,9.3,0.6,11.5-0.5
			c-0.6-18.3-3.9-32.6-4.4-48C634.5,277.2,636.5,258.6,636,245z"/>
		<path class="st16" d="M636,245c-1.5-0.3-4.7-1-8.4-1.7c1.5,2,1.3,13.3,1.2,14.4c-0.5,7.9,2.9,16.4,2.6,18.3
			c-1.4,10.2,0.8,16.9,0.7,20c-0.1,3.5-1.8,9.9-0.8,17.8c0.5,4.2,3.3,12.6,4.7,16.9c0.8,2.4-1.3,10.6-0.9,13.7
			c1.6-0.3,3.1-0.7,4.4-1.1c-0.6-18.3-3.9-32.6-4.4-48C634.5,277.2,636.5,258.6,636,245z"/>
		<path class="st17" d="M636.8,201.7c0.1-9-5.2-20.8-19.1-20.8c-5.8,0-16.3-0.9-19.5,7.2c-1.5,3.9-5.3,60.8-5.3,60.8
			c1.3,3.1,43.8,2.7,44.2,0.5C637.5,246.9,636.7,211.8,636.8,201.7z"/>
		<path class="st17" d="M601.6,222.3c-0.9,4.7,5.6,5,7.7,4.3c2.7-0.9,7.4-4.5,12.4-11.8c8.8-12.9,11-16.4,11-16.4l-12.3-8.2
			C620.3,190.3,602.5,217.6,601.6,222.3z"/>
		<path class="st18" d="M602.5,225.6c1.8,1.6,5.3,1.6,6.7,1.1c2.7-0.9,7.4-4.5,12.4-11.8c8.8-12.9,11-16.4,11-16.4l-1.2-7
			C629,201.2,613.9,218.9,602.5,225.6z"/>
		<path class="st18" d="M636.8,201.7c0.1-9-5.2-20.8-19.1-20.8c-1.4,0-3.1,0.2-5,0.6c9.7,3.7,19.8,6.7,19.3,17.3
			c-0.1,3.3-4.4,14.4-4.4,17.7c0,5.8,4.8,8.6,2.7,11.9c-2.9,4.6-5.3,3.5-6.4,6.9c-1.4,4.2,6.9,2.1,5.3,7.1c-1.8,5.7-6.5,4.2-8.3,8.7
			c8.6-0.1,16.1-0.7,16.2-1.7C637.5,246.9,636.7,211.8,636.8,201.7z"/>
		<path class="st21" d="M615,174.2c-0.3,3.1-4.6,4.2-4.6,7.9c0,3.1,13.3,4.2,13.4-0.2c0.2-4.4,0.5-12.6,0.5-12.6
			S615.4,171.1,615,174.2z"/>
		<path class="st20" d="M622.3,154.6c-1.4-1.6-3.5-2.5-5.6-2.8c-2.1-0.3-4.3-0.1-6.3,0.3c-1.5,0.3-2.9,1.1-3.6,2.5
			c-2.1,4.2-2.6,9-3.1,13.7c-0.2,2.3-0.5,4.7,0.4,6.8c1.4,3.4,5.6,6.2,9.1,5.1c8-2.6,11.3-10.4,11.3-11.2c-0.1-2.5,0.3-4.9,0.2-7.4
			C624.5,159,624,156.4,622.3,154.6z"/>
		<path class="st20" d="M612.1,180.1C612.1,180.1,612.2,180.1,612.1,180.1C612.2,180.1,612.1,180.1,612.1,180.1z"/>
		<path class="st20" d="M612.8,180C612.8,180,612.8,180,612.8,180C612.8,180,612.8,180,612.8,180C612.8,180,612.8,180,612.8,180z"/>
		<path class="st21" d="M618.9,152.3c-1.8-0.3-7.1,0.4-8.3,5.7c-0.1,0.3-0.4,2.9-0.5,3.2c-0.3,1.4-3,4.1-3.3,5.9
			c-0.5,3.2,1.1,9.5,3.2,11.7c0.8,0.8,1.7,1.3,2.7,1.6c0.2,0,0.3-0.1,0.5-0.1c8-2.6,11.3-10.4,11.3-11.2c-0.1-2.5,0.3-5,0.2-7.4
			c-0.1-2.5-0.7-5-2.3-6.9C621.4,153.5,620.3,152.5,618.9,152.3z"/>
		<path class="st19" d="M617.1,149.6c-7.5-1-10.5,3.9-12.6,4.4c5.6,4.1,14.4,2,14.2,3.4c-0.9,8.9,2.2,9.3,2.7,10.8
			c0.6,1.9,2.9,4.1,3.5,4.3C630.6,158,626,150.8,617.1,149.6z"/>
		<path class="st16" d="M620.7,150.5c-1.1-0.4-2.3-0.8-3.6-0.9c-5.9-0.8-9,2-11,3.5c0.1,0.1,7.3,3,14.3,1.7
			C622.5,154.4,622.8,151.4,620.7,150.5z"/>
		<path class="st20" d="M620,163c-3.1,1-6.3,5.2-2,7.2c1.3,0.6,2.9,0.4,4.1-0.4c0.8-0.6,1.4-1.6,1.8-2.6c0.4-1.3,0.5-2.8-0.5-3.8
			C622.5,162.6,621.1,162.6,620,163z"/>
		<path class="st21" d="M618.4,165.8c0,0,1,0.4,1.4,0.9c0.4,0.5,0.7,1.8,0.7,1.8s3.1-2.2,1.7-3.5
			C620.7,163.8,618.4,165.8,618.4,165.8z"/>
		<path class="st19" d="M612.8,171.1c-0.1-1.4-1-2.8-2.9-3.4c-1.6-0.5-5.4-1.3-6.1-0.6c-1.6,1.7-0.6,3.2-1.1,4.4
			c-1,2.7-2.2,4.2-1.9,6c1.1,5.4,8.2,9.4,14.5,5.7c6.2-3.7,3.4-11.2,3-13.3c-0.9-4.8,3.3-8.7,3.3-8.7l-2.1-2.9
			C619.5,158.2,616.1,170.3,612.8,171.1z"/>
		<g>
			<path class="st16" d="M614.9,170.3c1.1,0.9,3.2-7.1,3.1-7.5c-0.9,2.3-2,5-3.3,6.6C614.8,169.7,614.7,170.1,614.9,170.3z"/>
			<path class="st16" d="M602.6,177.6c-0.3-1.5,0.3-3.9,1.1-4.3c0.4-0.2,4.9,0,5-1.4c0.1-1.2-2.6-0.6-3.9-2.1
				c-0.6-0.6-0.1-1.8,0.6-2.8c-0.8-0.1-1.5,0-1.7,0.3c-1.6,1.7-0.6,3.2-1.1,4.4c-1,2.7-2.2,4.2-1.9,6c1,5.2,7.6,9.1,13.8,6.1
				C609,184.9,603.5,182.1,602.6,177.6z"/>
		</g>
		<g>
			<path class="st3" d="M609.6,176.3c-0.7-0.9-2.2-0.3-2.2,1.2c-0.7-0.3-2,0.2-2,1.2c-0.9-0.1-2.1,0.8-2.1,1.7c-1.2,0-2,0.9-1.8,2.5
				c0.2,1.7,0,3.8,0.5,8.5c0.1,0.8-0.3,8-0.3,8.8c1.5-0.4,6.5-1.2,8-1.1c0-0.8-0.4-7.8,0-9.1c0.9-2.5,1-5.8,0.8-8.2
				C610.5,180.2,610.4,177.3,609.6,176.3z"/>
			<path class="st4" d="M609.6,176.3c-0.7-0.9-2.2-0.3-2.2,1.2c-0.5-0.2-1.4,0-1.7,0.6c0.9,0.2,1.3,1.1,1.1,1.9
				c-0.6,2.2,0.8,7.7,1.2,11.4c0.3,2.7,0.6,5.1,0.5,7.7c0.6-0.1,1-0.1,1.3-0.1c0-0.8-0.4-7.8,0-9.1c0.9-2.5,1-5.8,0.8-8.2
				C610.5,180.2,610.4,177.3,609.6,176.3z"/>
			<path class="st4" d="M609.2,175.9l-5.1-2.1c-0.5-0.2-1,0-1.2,0.5c-0.2,0.5,0.6,1.4,1.1,1.6l4.5,1.7c0.5,0.2,1,0,1.2-0.5
				C609.9,176.7,609.7,176.1,609.2,175.9z"/>
		</g>
		<path class="st5" d="M609.5,191.7c-3.4-0.5-6.7,0.1-7.5,0.3c-0.1,0-0.2,0.1-0.2,0.2c-0.2,0.8-0.1,1.7-0.1,2.2
			c0,0.2,0.2,0.3,0.4,0.3c3.5-0.9,6.4-0.4,7.4-0.3c0.2,0,0.3-0.1,0.4-0.3c0.1-0.7,0-1.8-0.1-2.2
			C609.8,191.8,609.6,191.7,609.5,191.7z"/>
		<path class="st3" d="M543.9,154.8c-0.2-0.3-0.7-0.4-1-0.1c-0.3,0.2-0.4,0.7-0.1,1c0,0,2.3,2.9,3.2,3c0.3,0,0.7-0.3,0.4-0.6
			L543.9,154.8z"/>
		<path class="st3" d="M545.6,147.8c-0.4-0.3-1.1-0.2-1.4,0.2c-0.3,0.4-0.2,1.1,0.2,1.4l4.7,3.3c0.4,0.3,0.9-0.2,0.9-0.6
			C549.8,150.9,545.6,147.8,545.6,147.8z"/>
		<path class="st3" d="M545.2,150.5c-0.4-0.4-1-0.3-1.4,0.1c-0.4,0.4-0.3,1,0.1,1.4c0,0,3.9,3.5,5.2,3.3c0.4,0,0.8-0.6,0.4-1
			L545.2,150.5z"/>
		<path class="st3" d="M544.8,152.6c-0.4-0.3-1-0.3-1.3,0.1c-0.3,0.4-0.3,1,0.1,1.3c0,0,3.5,3.2,4.7,3c0.3,0,0.7-0.6,0.4-0.9
			L544.8,152.6z"/>
		<path class="st17" d="M601.6,196.4c0,0-1.2,12.2-1.6,17.5c-0.3,3.4,0.3,6.9,1.3,10.1c1.1,3.3,11.1,5.7,10.6-5.2
			c-0.3-7.1-2-22.8-2-22.8C604.7,195.6,601.6,196.4,601.6,196.4z"/>
		<path class="st18" d="M610,196.1c-1.2-0.1-2.3-0.1-3.2-0.1c0.4,0.6,0.7,1.3,0.8,2.1c1.2,8.2,4.9,17.9-0.4,25.5
			c-1,1.4-2.1,2.2-3.4,2.7c3.3,1.4,8.5,0.6,8.2-7.3C611.6,211.8,610,196.1,610,196.1z"/>
		<path class="st22" d="M606.4,190.3c-1.3,0.1-2.4,1.2-2.3,2.5c0.1,1.3,1.2,2.4,2.5,2.3c1.3-0.1,2.4-1.2,2.3-2.5
			C608.9,191.3,607.8,190.2,606.4,190.3z"/>
		<path class="st23" d="M606.4,190.9c-1,0-1.7,0.9-1.7,1.9s0.9,1.7,1.9,1.7c1,0,1.7-0.9,1.7-1.9
			C608.3,191.7,607.4,190.9,606.4,190.9z"/>
	</g>
	<g>
		<path class="st13" d="M293.4,331c0,0,8.6,2.1,11.5,5.1c31.8,8.3,82.5-18.1,122.7-66.5c29.1-35,45.9-73.3,47.7-103
			c0-0.3,0.1-2.7,0.1-3.6c0-0.3,0-2.8,0-3.7c0-0.2-0.3-5-0.5-7.1c0-0.2-0.3-2.3-0.5-3.1c0-0.3-0.1-0.5-0.2-0.8
			c-0.1-0.8-0.3-1.5-0.5-2.3c-0.1-0.3-0.6-2.3-0.8-3c-0.1-0.2-0.1-0.4-0.2-0.6c-0.3-0.9-0.6-1.7-0.9-2.6c-1.9-5-4.6-9.4-8.1-13
			l26,24l0,0c23,26.5,7.3,87.9-37.3,141.6C405.6,348.5,344.8,375,315.9,352c0,0,0.1,0.1,0.1,0.1L293.4,331z"/>
		<path class="st24" d="M460.8,124c-28.7-23.8-90,2.7-137,59.3c-47,56.6-61.9,121.7-33.2,145.6c28.7,23.8,90-2.7,137-59.3
			C474.6,213,489.4,147.9,460.8,124z M420.6,263.8c-18.8,22.6-40.9,41.3-62.5,52.7c-20.2,10.7-38.6,14.5-51.8,10.6
			c-3.8-1.1-7.2-2.9-10.1-5.2c-10.9-9.1-14.1-27.9-8.7-51.6c6-26.1,21.3-55,43.1-81.3c18.8-22.6,41-41.3,62.5-52.7
			c20.2-10.7,38.6-14.5,51.8-10.6c3.8,1.1,7.2,2.9,10.1,5.2c11,9.1,14.1,27.9,8.7,51.6C457.8,208.6,442.5,237.5,420.6,263.8z"/>
		<path class="st24" d="M434.3,270.6c-5.9,7.1-4.9,17.7,2.2,23.6l61,51l21.5-25.9L458,268.4C450.8,262.4,440.2,263.4,434.3,270.6z"
			/>
		<path class="st8" d="M454.8,266.3c-6.8-3.5-15.4-1.9-20.5,4.3c-5.9,7.1-4.9,17.7,2.2,23.6l61,51l8.8-10.6
			c-7.9-7.1-45.5-42.4-58.1-50.6C439,278.1,446,266,454.8,266.3z"/>
		<path class="st25" d="M554.5,330.7c-0.4-0.3-0.7-0.7-1.2-1c-0.2-0.2-0.5-0.4-0.8-0.6c-0.1-0.1-0.1-0.1-0.2-0.1
			C554,330.3,554.8,331,554.5,330.7C554.6,330.8,554.5,330.8,554.5,330.7z"/>
		<path class="st19" d="M472.6,302.8c-10.9,13.3-11,31.2-0.3,40.1c0,0,0.1,0,0.1,0.1l40.3,33.9c-9.6-9.1-9.1-26.2,1.4-39
			c10.6-12.9,27.5-16.7,38.3-8.8c-8.9-7.5-41.6-35.2-42.2-35.5C499.4,286.3,483,290.2,472.6,302.8z"/>
		<g>
			<path class="st26" d="M554.5,330.7c-0.4-0.3-0.7-0.7-1.2-1c-0.2-0.2-0.5-0.4-0.8-0.6c-0.1-0.1-0.1-0.1-0.2-0.1
				C554,330.3,554.8,331,554.5,330.7C554.6,330.8,554.5,330.8,554.5,330.7z"/>
		</g>
		<path class="st16" d="M554.5,330.7c-0.4-0.3-0.7-0.7-1.2-1c-0.2-0.2-0.5-0.4-0.8-0.6c-10.8-8.1-27.8-4.4-38.5,8.6
			c-10.5,12.8-11,29.9-1.4,39c0,0,0.1,0.1,0.1,0.1c0.3,0.3,0.7,0.6,1.1,0.9c0.2,0.1,0.3,0.3,0.5,0.4c10.2,7.9,26.1,5,36.9-6.4
			c0.1-0.1,0.1-0.1,0.2-0.2c0.2-0.3,0.5-0.6,0.8-0.8c0,0,0,0,0,0c0.3-0.3,0.5-0.6,0.8-0.9c0.2-0.2,0.4-0.5,0.6-0.7
			c0,0,0-0.1,0.1-0.1c0.2-0.2,0.3-0.4,0.5-0.7C563.6,355.7,563.8,339.6,554.5,330.7C554.6,330.8,554.6,330.8,554.5,330.7z"/>
		<g>
			<defs>
				<path id="SVGID_1_" d="M466.3,31.1H289.4l-4.4,256.5c-0.1,1.6-0.1,3.2-0.1,4.7l0,0.6l0,0c0.3,12.9,4.1,23.1,11.3,29.1
					c2.8,2.3,6.2,4.1,10.1,5.2c13.2,3.8,31.6,0,51.8-10.6c21.6-11.4,43.8-30.1,62.5-52.7c21.9-26.3,37.2-55.2,43.2-81.3
					c1.7-7.3,2.5-14.1,2.6-20.3L466.3,31.1z"/>
			</defs>
			<clipPath id="SVGID_2_">
				<use xlink:href="#SVGID_1_"  style="overflow:visible;"/>
			</clipPath>
			<g class="st27">
				<g>
					<rect x="421" y="51" class="st18" width="35.9" height="281.3"/>
					<rect x="421" y="51" class="st15" width="7.9" height="281.3"/>
				</g>
				<g>
					<rect x="378.2" y="93.5" class="st9" width="35.9" height="238.8"/>
					<rect x="378.2" y="93.5" class="st28" width="7.9" height="238.8"/>
				</g>
				<g>
					<rect x="335.1" y="137.9" class="st12" width="35.9" height="194.5"/>
					<rect x="335.1" y="137.9" class="st14" width="7.9" height="194.5"/>
				</g>
				<g>
					<rect x="293.4" y="191.7" class="st19" width="35.9" height="140.6"/>
					<rect x="293.4" y="191.7" class="st11" width="7.9" height="140.6"/>
				</g>
			</g>
		</g>
	</g>
	<g>
		<g>
			<path class="st24" d="M276.5,162.5h-24.2c0.5,4.4-4.3,9.6-6.7,13.2c-2.4,3.6-3,17,18.6,17s20.8-13,19-17
				C281.4,171.9,276,166.9,276.5,162.5z"/>
			<path class="st9" d="M276.5,162.5h-3.9c5,8.9-0.4,20.9-0.4,20.9s-2.7-5.9-3.6-4.7c-4.2,5.8-12,9.7-18.9,5.2
				c-3.3-2.1-3.7-6.3-3.1-9.5c-0.3,0.5-0.7,0.9-0.9,1.4c-2.4,3.6-3,17,18.6,17s20.8-13,19-17C281.4,171.9,276,166.9,276.5,162.5z"/>
			<path class="st4" d="M274.3,356.3c-0.5-1.3-1.4-2.4-2.3-5.5c-2.7-9.4-0.1-16.9-2.5-29.2c-0.5-2.4-1.7-4.6-1.5-7.4
				c0.1-2.6,0.5-4.7,0.4-6.7c-0.1-1.9-0.8-3.8-1-6.2c-0.9-11.7-0.6-26-0.2-37.2l-18.8-9.5c0.4,11.6,4.8,40.5,5,41.8
				c2.1,10.8,1.3,12.5,2.5,21.7c1.2,9.7,7.3,24.9,10.1,35.1c0.9,3.5,1.9,19.6,1.8,22.4c-0.1,1.8-1.3,4.7,1.2,4.7
				c2.1,0,7.7-2.3,8.4-4.8c0.8-2.6-1.5-7.2-2.3-11.8C274.3,360.3,274.9,358.1,274.3,356.3z"/>
			<path class="st3" d="M261.7,321.8c-3-9.5-5.2-19.2-2.9-29c2.5-10.4,0.5-21,2.4-31.5l-12.8-6.5c0.4,11.6,4.8,40.5,5,41.8
				c2.1,10.8,1.3,12.5,2.5,21.7c1.2,9.7,7.3,24.9,10.1,35.1c0.9,3.5,1.9,19.6,1.8,22.4c-0.1,1.8-1.3,4.7,1.2,4.7c1,0,3-0.6,4.7-1.5
				c-0.3-8.6-4.8-17.3-5.2-26C267.8,341.6,265,332.5,261.7,321.8z"/>
			<path class="st29" d="M275.7,367.5c-0.3,1.9-0.8,4.1-2,5.7c-1.8,2.5-5.7,1.5-6.1-0.4c0,1.3,0.1,2.3,0,2.9
				c-0.1,1.8-1.3,4.7,1.2,4.7c2.1,0,7.7-2.3,8.4-4.8c0.6-1.9-0.5-5-1.5-8.3C275.8,367.4,275.8,367.5,275.7,367.5z"/>
			<path class="st5" d="M275.7,367.5c-0.3,1.9-0.8,4.1-2,5.7c-0.2,0.2-0.4,0.4-0.6,0.6c0,0.2,0,0.4-0.1,0.6c-1,3.7-4.9,4.7-5.7,4.6
				c0.1,0.8,0.4,1.4,1.5,1.4c2.1,0,7.7-2.3,8.4-4.8c0.6-1.9-0.5-5-1.5-8.3C275.8,367.4,275.8,367.5,275.7,367.5z"/>
			<path class="st3" d="M273.1,186.1c-5.6,1.5-4.3-4.7-5.1-10.1l-7.6,2.7c0.9,5.1,1.7,8.7-2.5,10.3c-2.4,0.9-6.3,2-8.3,2.5
				c-3.7,0.9-5.2,24.5-5.9,31.4l6.5,2.6c1.4-5,3.9-10.7,3.9-16.7l30.9-14.5C283,185.5,279.8,184.2,273.1,186.1z"/>
			<path class="st3" d="M277.2,194.2c0,0,9.5,21.6,12.9,26l5.2-4.9c-1.6-4-4.8-17.3-9.3-24.8L277.2,194.2z"/>
			<path class="st4" d="M289.2,215.8c-2.2-4.2-1.7-10.5-1.4-11.2c0.6-1.4,2.3-4.6,1.8-6.3c-1.2-4.3-7.2-2.5-8-5.6
				c0-0.1,0-0.2-0.1-0.3l-4.3,1.8c0,0,9.5,21.6,12.9,26l2.9-2.7C292.4,217.1,289.6,216.6,289.2,215.8z"/>
			<path class="st4" d="M273.1,186.1c-5.6,1.5-4.3-4.7-5.1-10.1l-7.6,2.7c0.2,1,0.4,1.9,0.5,2.8c2.1,3.1,6.1,7.9,9.7,7.4
				c1.9-0.2,3.7-2.5,6-2.8c1.5-0.2,3.2,0,4.8,0.4C279.4,185,276.8,185.1,273.1,186.1z"/>
			<path class="st4" d="M250.9,209.6c-0.1,1.2-0.2,2.5-0.2,3.8c-0.1,3.8-2,8.2-2.9,11.7l2.5,0.5c1.2-4,3.6-8.5,3.8-13.2
				C253.2,212,251.1,209.9,250.9,209.6z"/>
			<path class="st3" d="M269,156.5c-1.7-0.9-3.8-1.3-6.6-0.9c-6.3,0.9-8.2,6-8.2,11.3c0,0.3,0,0.6,0,0.9v0c0.1,1.3,0.1,2.6,0.3,3.8
				c0.2,1.7,0.6,3.2,1.4,4.7c0.7,1.2,4.9,6.5,8,6.6c3.4,0.1,7.7-5.5,8.3-7c0.5-1.2,0.8-2.7,1.1-4.5c0.1-0.8,0.2-1.7,0.2-2.7
				c0-0.2,0-0.5,0-0.7c0-0.2,0-0.3,0-0.5c0-0.2,0-0.4,0-0.5C273.7,162.5,272.4,158.4,269,156.5z"/>
			<path class="st3" d="M267.6,247.7c-6,12.3-4.7,20.1-4.5,36.6c0.1,10.9,0,13.8-0.6,21.3c-0.2,2.3-0.8,4.2-1,6.2
				c-0.1,2,0.3,4.1,0.4,6.7c0.3,2.8-1,4.9-1.5,7.4c-2.5,12.3,0.3,21.2-2.4,30.5c-0.9,3.1-1.9,2.8-2.4,4.1c-0.6,1.8,0,4-0.7,7.5
				c-0.8,4.6-3.1,9.2-2.3,11.8c0.5,1.6,4.4,6.2,6.5,6.2c2.4,0,2.2-4.3,2.4-6c0.2-1.7,0.4-14.6,0.5-15.6c0.3-3.7,10.2-31,11.4-40.7
				c1.2-9.2,0.6-13.4,2.6-24.2c2.8-14.4,5-27.6,5.3-40.3l-1.5-11.2L267.6,247.7z"/>
			<path class="st29" d="M259.6,379.7c-4.3,0-5.4-7.6-5.6-8.2c-0.9,3.3-2,6.3-1.4,8.1c0.5,1.6,4.4,6.2,6.5,6.2c2.4,0,2.2-4.3,2.4-6
				c0-0.3,0.1-0.8,0.1-1.6C261.1,378.8,260.5,379.7,259.6,379.7z"/>
			<path class="st5" d="M259.6,379.7c-0.5,0-1-0.1-1.4-0.3c0.1,0.5,0,0.9,0,1.5c-0.2,1.3-1.8,1.9-2.9,1.6c-0.4-0.1-0.8-0.2-1.1-0.4
				c1.5,1.8,3.6,3.7,5,3.7c2.4,0,2.2-4.3,2.4-6c0-0.3,0.1-0.8,0.1-1.6C261.1,378.8,260.5,379.7,259.6,379.7z"/>
			<path class="st29" d="M285.8,234.6c-3.7,1-26.3,2.8-34.6-2c-0.6,3.6-7.1,10.4-7.1,21.9c0,16.7,7.1,50.2,7.1,50.2
				s15.8,4.4,26.9,0.6c4.5-21.7,10.7-44.4,8.9-60.8C287,244.1,285.9,235.1,285.8,234.6z"/>
			<path class="st5" d="M285.8,234.8c-0.1,0.1-0.1,0.1-0.2,0.2c-7.9,8.1-24.3,11.1-22.2,15.4c1.5,3,13.8,6,15.9,7.9
				c4.4,4.1-8.1,9.5-7.3,19c0.4,4.4-1.9,12.4-3,16.7c-1.8,6.6-11.2,6.1-15.4,11.3c4.9,1,16,2.9,24.4,0.1
				c4.5-21.7,10.7-44.4,8.9-60.8C287,244.1,286,236.2,285.8,234.8z"/>
			<path class="st29" d="M289,191.6c-8.3-10.7-16.6-5.8-16.6-5.8c-3.3,3-8.1,7-8.1,7l-9.5-3c0,0-9.5,0.3-10.6,9.2
				c-0.4,3,7.2,2.9,5.7,6.9c-2,5.5,1.8,7.7,3.9,9.4c0.8,4.7,1,7.5,0.4,10.1c-0.9,3.6-3.7,5.2-3.2,8.3c0.9,5.4,32.6,4.3,35.2,1.1
				c2.8-3.3,0-23.2-1.2-33.6C284.3,195,289.9,192.8,289,191.6z"/>
			<path class="st5" d="M282.1,190.4c-3.1-2-6.6-4.9-8.7-3.2c-5.9,4.6-9.1,5.6-9.1,5.6l-9.5-3c0,0-2.7,0.1-5.4,1.6
				c0.8,0.3,2.4,1.5,3.9,1.6c2.7,0.2,5.8,2.3,5.5,5.5c0,0.4,0.4,1.4,0.6,1.5c3.3,2,1.1,9.4-2.8,11.2c-2.6,1.3,10.2,9.2,10.2,17
				c0,3.3,7.8,0,10.5-2c2.4-1.8,4-0.1,1.6,1.7c-4.4,3.4-8.8,6.8-16.8,6.9c-1.9,0-5,0.7-6.8,1.5c8.9,2.2,28.9,1,30.9-1.5
				c2.8-3.3,0-23.2-1.2-33.6C284.3,195,285,192.3,282.1,190.4z M281.7,204.2c-1.1,1.6-1.9,3.7-1.5,5.6c0.7,2.9-1.5,4-4,2.3
				c-1.5-1-7.2,2.4-10.5,1.9c-3-0.5-2.4-3,1.5-5.2c4.5-2.5,7.5-4,3.7-8.1c-3.3-3.6,4.5,0.5,5.8,1.2
				C278.8,203.2,282.5,203,281.7,204.2z"/>
			<g>
				<g>
					<path class="st4" d="M262.3,175.2c-0.3,0.3,0.4,0.5,0.7,0.6c0.1,0,0.4,0.1,0.6,0.1c0.3,0.1,0.6,0.1,0.9,0
						c0.2,0,0.4-0.1,0.6-0.1c0.3,0,0.9-0.1,0.8-0.5c-0.1-0.2-0.9-0.6-1.8-0.6C263.1,174.8,262.5,175,262.3,175.2z"/>
				</g>
			</g>
			<path class="st21" d="M269,155.3c-1.7-0.9-3.8-1.3-6.6-0.9c-6.7,0.9-8.4,6.6-8.1,12.3c0.1,1.3,0.1,2.6,0.3,3.8
				c6.9-7.8,11.3-10.7,11.5-10.9c-0.5,1.5-2.9,5.3-2.9,5.3c4-1.6,7-4.5,7-4.5c1.8,1.5,2.9,3.7,3.5,5.5
				C273.7,161.3,272.4,157.2,269,155.3z"/>
			<path class="st24" d="M271.8,154.6c0,0-2.1-4.8-7.9-4.8c-7.2,0-11.6,5.8-11.6,10.9c0,4.5,0.9,6.4,0.4,10.3
				c7.7-9,12.6-12.1,12.6-12.1c-0.5,1.5-3,5.3-3,5.3c4-1.6,7-4.5,7-4.5c3.5,2.9,4.1,8.5,4.1,8.5c2.3-2.5,3.6-5.8,3-9
				C275.9,155.4,271.8,154.6,271.8,154.6z"/>
			<path class="st9" d="M252.8,171c7.7-9,12.6-12.1,12.6-12.1c-0.5,1.5-3,5.3-3,5.3c1.6-0.6,3.9-3.8,4.9-6.6
				C258.5,157.5,252.8,170.9,252.8,171z"/>
			<path class="st9" d="M276,157.5c1.2,2.7,0.1,6.5-3.2,7.4c0.6,1.8,0.8,3.2,0.8,3.2c2.3-2.5,3.6-5.8,3-9
				C276.5,158.5,276.2,158,276,157.5z"/>
			<path class="st21" d="M272.2,167.5c-0.7-0.3-1.6-0.4-2.4-0.4c-1.4,0-3,0.1-3.8,1.2l0,0c-0.2,0.2-0.7,0.3-0.9,0.3
				c-0.1,0-0.7,0-1,0c-0.3,0-0.9,0-1,0c-0.1,0-0.7-0.1-0.8-0.3l0,0c-0.7-1.2-2.4-1.4-3.7-1.4c-0.3,0-0.7,0-1.1,0
				c-0.1,0.2-0.2,0.3-0.4,0.5c0.4,0,0.9-0.1,1.4,0c2.5,0.1,3.6,0.8,3.6,2.3c-0.1,1.8-1.7,3.2-3.7,3.2c-1.8-0.1-3.3-1.4-3.5-3
				c-0.1,0.2-0.2,0.4-0.4,0.5c0,0,0,0.1,0,0.1c0,0,0,0,0-0.1c0.4,1.6,2,2.8,3.8,2.9c2.2,0.1,4-1.4,4.2-3.4l0,0.1
				c0.3-0.5,1.1-0.7,1.5-0.6c0.4,0,1.2,0.2,1.5,0.8l0-0.1c0.1,1.9,1.8,3.6,3.9,3.6c1.6,0.1,3-0.7,3.7-1.9c0.1-0.8,0.2-1.7,0.2-2.7
				c0-0.2,0-0.5,0-0.7c0-0.2,0-0.3,0-0.5C273.2,167.6,272.6,167.5,272.2,167.5C272.2,167.4,272.2,167.4,272.2,167.5z M273.4,169.8
				c-0.1,1.8-1.7,3.2-3.7,3.2c-2-0.1-3.6-1.6-3.5-3.4c0-1.5,1.2-2.1,3.7-2C272.4,167.6,273.5,168.3,273.4,169.8z"/>
			<g>
				<g>
					<path class="st8" d="M258.4,166.3c-1.8-0.1-4.1,0.1-4.2,2.4c-0.1,2.1,1.7,3.8,4,3.9c2.3,0.1,4.1-1.5,4.2-3.6
						C262.5,166.7,260.2,166.4,258.4,166.3z M258.2,172.2c-2-0.1-3.6-1.6-3.5-3.4c0.1-1.5,1.2-2.1,3.7-2c2.5,0.1,3.6,0.8,3.6,2.3
						C261.9,170.9,260.2,172.3,258.2,172.2z"/>
				</g>
				<path class="st8" d="M254.2,166.6c-0.3,0-0.4,0-0.5,0.1c0,0.1,0,0.6,0,0.6c0,0.1,0,0.2,0.2,0.2c0.2,0,0.2,0.1,0.2,0.4
					c0,0.3,0,1.2,0.2,1.8c0,0,0-1.7,0.5-2.3c0.6-0.7,1.3-1,1.3-1C255.5,166.6,254.5,166.6,254.2,166.6z"/>
				<g>
					<path class="st8" d="M269.5,166.7c-1.8-0.1-4.1,0.1-4.2,2.4c-0.1,2.1,1.7,3.8,4,3.9c2.2,0.1,4.1-1.5,4.2-3.6
						C273.6,167.1,271.3,166.8,269.5,166.7z M269.3,172.6c-2-0.1-3.6-1.6-3.5-3.4c0.1-1.5,1.2-2.1,3.7-2c2.5,0.1,3.6,0.8,3.6,2.3
						C273,171.2,271.3,172.7,269.3,172.6z"/>
				</g>
				<path class="st8" d="M273.7,167.3c-0.3,0-1.3-0.1-1.9-0.2c0,0,0.7,0.3,1.2,1.1c0.4,0.6,0.3,2.3,0.3,2.3c0.3-0.6,0.4-1.4,0.4-1.7
					c0-0.3,0.1-0.4,0.3-0.4c0.2,0,0.2-0.1,0.2-0.2c0-0.1,0-0.5,0-0.7C274.1,167.3,274,167.3,273.7,167.3z"/>
				<path class="st8" d="M263.9,168.1c-0.3,0-0.9,0-1,0c-0.1,0-0.7-0.1-0.8-0.3l0.3,1.6c0.3-0.5,1.1-0.7,1.5-0.6
					c0.4,0,1.2,0.2,1.5,0.8l0.4-1.6c-0.2,0.2-0.7,0.3-0.9,0.3C264.8,168.1,264.2,168.1,263.9,168.1z"/>
			</g>
			<g>
				<path class="st3" d="M279.6,229.8c-2.3-0.4-0.2-1.9-2.1-2c-2.1-0.1-4.2-0.2-6.1,1.3c-0.9,0.7-1.9,0.4-2.9,0.3
					c-4.2-0.2-9.9-3.8-17.8-5.2c-2.7-0.5-4.1-1.3-6.8-1.9c-0.7,3.8-0.7,7.6,0.5,8.5c3.4,2.4,9.6,2.9,13.7,3.3
					c4.1,0.4,5.3-0.4,11,0.6c4.3,0.8,6.9,0.8,8.5,1.1c1.5,0.3,2.4,0,2.4-1.2c0.8,0,1.5-0.6,1.5-1.4c0.9,0.1,1.3-0.8,1.1-1.4
					c1.4,0.1,2.7,0.1,2.4-0.9C285,230.2,280.9,230,279.6,229.8z"/>
				<path class="st3" d="M278.7,226.3l-4.4,1.5l4.1,1.2c0.4-0.3,0.8-0.9,1.3-1.4c1.6,0.1,2.6-0.5,2.8-1.7
					C280.5,226.4,279.6,226.3,278.7,226.3z"/>
			</g>
		</g>
		<g>
			<path class="st3" d="M328.4,232.7c-2.3-1,0.4-2-1.6-2.6c-2.2-0.6-4.3-0.7-6.7,0.2c-2.2,0.8-16.7-9.7-23.5-14.6
				c-2.4-1.7-8.3,2.6-7.1,4.4c5.7,8.9,21.2,12.3,26.8,14.8c4.3,2,7,2.6,8.5,3.4c1.5,0.7,2.4,0.6,2.8-0.6c0.8,0.2,1.7-0.2,1.9-1.1
				c0.9,0.3,1.6-0.5,1.5-1.2c1.4,0.5,2.7,0.9,2.8-0.3C333.9,234.6,329.7,233.3,328.4,232.7z"/>
			<path class="st4" d="M328.4,232.7c-0.3-0.1-0.7-0.2-1.3-0.2c-1.3-0.2-2.6,0-3.8,0.5c-1.9,0.8-4.1,1.5-5.4,1
				c-3.8-1.6-8.9-5.3-12.7-7c-3.8-1.7-6.8-4.5-10.2-7c-0.4-0.3-2.8-2.5-3.9-3c-1.1,0.6-2.7,1.8-1.7,3.2c5.7,8.9,21.2,12.3,26.8,14.8
				c1.7,0.8,7.6,2.9,8.5,3.4c1.5,0.7,2.4,0.6,2.8-0.6c0.8,0.2,1.7-0.2,1.9-1.1c0.9,0.3,1.6-0.5,1.5-1.2c1.4,0.5,2.7,0.9,2.8-0.3
				C333.9,234.6,329.7,233.3,328.4,232.7z"/>
			<path class="st3" d="M322.8,229.6l2.5,1.9c0.9,0.2,1.9-0.1,3.1-0.7c1.6,0.5,2.8,0.1,3.3-1c-2.2-0.1-3.1-0.4-4-0.7L322.8,229.6z"
				/>
			<polygon class="st16" points="318.1,237.3 393,224.9 317.6,234.1 			"/>
			<g>
				<path class="st3" d="M333.1,234.7c-1.6-0.6-2-0.7-3.6-1.1c-1.6-0.4-1.5,0.4-0.5,0.9c1.3,0.6,2.3,1,3.7,1.5
					c0.8,0.3,1.1,0,1.2-0.3C334,235.4,333.7,234.9,333.1,234.7z"/>
				<path class="st3" d="M330.7,235.5c-1.6-0.6-3-1.2-4.6-1.8c-1.5-0.5-1.5,0.3-0.6,0.8c1.3,0.7,3,1.5,4.3,2.1
					c0.8,0.3,1.1,0,1.2-0.3C331.3,236.1,331.3,235.7,330.7,235.5z"/>
				<path class="st3" d="M329.1,236.7c-1.4-0.6-2.6-1.2-4-1.8c-1.3-0.5-1.5,0.3-0.7,0.9c1.1,0.7,2.6,1.6,3.8,2.1
					c0.7,0.3,1,0.1,1.1-0.2C329.5,237.3,329.6,236.9,329.1,236.7z"/>
				<path class="st3" d="M327.3,237.7c-1.4-0.6-2.1-0.9-3.5-1.4c-1.3-0.5-1.4,0.2-0.5,0.8c1.1,0.7,2,1.2,3.2,1.7
					c0.7,0.3,1,0.1,1.1-0.2C327.8,238.3,327.8,238,327.3,237.7z"/>
			</g>
		</g>
		<g>
			<g>
				<path class="st19" d="M239.8,228.7C239.8,228.7,239.8,228.7,239.8,228.7c0,0.8,0.7,1.5,1.5,1.5h35.2c0.8,0,1.5-0.7,1.5-1.5
					c0,0,0,0,0,0H239.8z"/>
			</g>
			<path class="st19" d="M281.7,197.7l-7.3,30.6c-0.1,0.5,0,1.9,1.8,1.9l29.8-0.4v-34.1l-21.6,0C283.1,195.7,282,196.5,281.7,197.7z
				"/>
			<path class="st30" d="M322.2,195.7h-38.1c-0.4,0-0.7,0.3-0.8,0.6l-7.8,32.8c-0.2,0.6,0.3,1.1,0.8,1.1h35.5c1.9,0,3.6-1.3,4.2-3.2
				l7.1-30.2C323.2,196.2,322.7,195.7,322.2,195.7z"/>
		</g>
	</g>
</g>
</svg>
