<?xml version="1.0" encoding="utf-8"?>
<!-- Generator: Adobe Illustrator 25.2.1, SVG Export Plug-In . SVG Version: 6.00 Build 0)  -->
<svg version="1.1" id="Layer_1" xmlns="http://www.w3.org/2000/svg" xmlns:xlink="http://www.w3.org/1999/xlink" x="0px" y="0px"
	 viewBox="0 0 1186.2 183.6" style="enable-background:new 0 0 1186.2 183.6;" xml:space="preserve">
<style type="text/css">
	.st0{fill:#FFFFFF;}
</style>
<path class="st0" d="M75.8,96.7c1-2.1,3.4-2.9,5.5-2c1.9,0.9,2.9,3.2,2.1,5.2c-6.7,15.9-2.2,34.4,11.2,45.4c1.8,1.4,2.2,4,0.8,5.8
	s-4,2.2-5.8,0.8c-0.1-0.1-0.2-0.1-0.3-0.2C73.1,138.4,67.6,116,75.8,96.7L75.8,96.7z M136,159.4c-2.2,0.7-4.5-0.5-5.2-2.6
	c-0.7-2.1,0.3-4.3,2.3-5.1c2.4-0.9,4.7-2,6.8-3.3c2.1-1.3,4.2-2.9,6-4.6c1.7-1.5,4.3-1.4,5.8,0.2c1.5,1.7,1.4,4.3-0.2,5.8l0,0
	c-2.2,2.1-4.7,3.9-7.3,5.5C141.6,157,138.8,158.3,136,159.4L136,159.4z M174.2,96c-0.3,2.3-2.3,3.9-4.6,3.6s-3.9-2.3-3.6-4.6l0,0
	c0.1-1.1,0.2-1.9,0.3-2.4s0.1-1.3,0.2-2.4c0.3-2.3,2.4-3.9,4.6-3.6c2.1,0.3,3.7,2.2,3.6,4.3c-0.1,0.6-0.2,1.4-0.3,2.6
	C174.4,94.7,174.3,95.5,174.2,96L174.2,96z M107.5,48.9c-1-2.1-0.1-4.5,1.9-5.5c2-0.9,4.3-0.2,5.4,1.6l0.8,1.6
	c0.3,0.7,0.6,1.2,0.8,1.6c0.9,2.1-0.1,4.5-2.2,5.4c-2,0.8-4.2,0-5.2-1.9c-0.3-0.6-0.5-1.1-0.7-1.4C108.2,50.3,107.5,48.9,107.5,48.9
	z M113.9,66.8c-0.4-2.2,1-4.4,3.3-4.9c2.2-0.4,4.4,1,4.9,3.3c3.2,16.2,0.9,33.1-6.7,47.8c-1.1,2.2-0.3,4.9,2,6.1
	c1.1,0.5,2.3,0.6,3.4,0.3c1.1-0.4,2.1-1.2,2.6-2.2c1.4-2.8,2.7-5.6,3.8-8.5c1.1-2.9,2-5.8,2.8-8.8c0.8-2.2,3.1-3.3,5.3-2.5
	c1.9,0.7,3,2.6,2.7,4.5c-1.7,6.6-4.1,13-7.2,19.1c-3.6,6.1-11.4,8.1-17.5,4.5c-5.5-3.3-7.7-10.2-5.2-16
	C114.7,96.2,116.8,81.3,113.9,66.8L113.9,66.8z M37.4,154.3c0.9,2.1-0.1,4.5-2.1,5.4c-2,0.9-4.3,0-5.3-1.9c-3.7-7.8-6.4-16.1-8-24.6
	c-0.6-2.2,0.7-4.5,2.9-5.1c2.2-0.6,4.5,0.7,5.1,2.9c0.1,0.2,0.1,0.5,0.1,0.7C31.5,139.6,33.9,147.1,37.4,154.3L37.4,154.3z
	 M28.5,115.1c0,2.3-1.8,4.1-4.1,4.1s-4.1-1.8-4.1-4.1c0-10.4,1.6-20.8,4.9-30.7c0.7-2.2,3.1-3.3,5.2-2.6c2.2,0.7,3.3,3.1,2.6,5.2
	l0,0c-1.5,4.5-2.6,9.2-3.3,13.9C28.8,105.6,28.5,110.3,28.5,115.1L28.5,115.1z M118,171.4c2.3,0,4.1,1.9,4,4.2s-1.9,4.1-4.2,4
	c-0.7,0-1.5,0-2.2-0.1c-0.8,0-1.5-0.1-2.2-0.2c-2.3-0.3-3.9-2.4-3.6-4.6c0.3-2.1,2.2-3.7,4.3-3.6l1.9,0.1
	C116.7,171.3,117.4,171.4,118,171.4L118,171.4z M149.1,68.4c-0.3-2.3,1.3-4.3,3.6-4.6c2.3-0.3,4.3,1.3,4.6,3.6
	c0.9,7.7,0.9,15.5,0.1,23.2c-0.8,7.7-2.4,15.3-4.9,22.7c-0.8,2.1-3.2,3.3-5.3,2.5c-2.1-0.7-3.2-3-2.6-5.1
	C149.3,97,150.7,82.6,149.1,68.4L149.1,68.4z M104.2,30.1c1.5,1.7,1.3,4.4-0.5,5.8c-1.7,1.4-4.1,1.3-5.6-0.3
	c-2.6-2.8-5.4-5.4-8.5-7.7c-3.1-2.3-6.3-4.4-9.8-6.1c-2.1-1.1-4.4-2.1-6.6-3c-2.2-0.9-4.5-1.6-6.9-2.2c-2.2-0.6-3.5-2.8-3-5
	s2.8-3.5,5-3c2.6,0.7,5.2,1.5,7.7,2.5c6.6,2.5,12.8,6,18.4,10.3C98.1,24,101.3,26.9,104.2,30.1z M40.4,42.2c2.2-0.5,4.4,1,4.9,3.2
	c0.4,2.1-0.8,4.1-2.8,4.8c-5.6,1.5-10.7,4.5-14.7,8.8c-1.5,1.7-4.1,2-5.8,0.5c-1.7-1.5-2-4.1-0.5-5.8c0.1-0.1,0.2-0.2,0.2-0.3
	c2.5-2.7,5.3-5.1,8.5-7C33.4,44.5,36.8,43.1,40.4,42.2L40.4,42.2z M8.1,149.3c-0.6-2.2,0.7-4.5,2.9-5.1c2.1-0.6,4.3,0.6,5,2.6
	l0.6,1.8c0.1,0.2,0.3,0.8,0.6,1.8c0.7,2.2-0.6,4.5-2.7,5.2c-2.1,0.6-4.3-0.4-5.1-2.5l-0.6-1.9C8.4,150.3,8.2,149.7,8.1,149.3z"/>
<path class="st0" d="M49.9,171.8c1.5,1.7,1.3,4.4-0.5,5.8c-1.7,1.5-4.4,1.3-5.8-0.5c-0.8-1-1.6-2-2.4-2.9s-1.5-1.9-2.2-3
	c-1.3-1.9-0.9-4.4,1-5.8s4.4-0.9,5.8,1c0.6,0.9,1.3,1.8,2.1,2.8C48.5,170.1,49.2,171,49.9,171.8L49.9,171.8z"/>
<path class="st0" d="M140.6,84.9c-0.1,2.3-2.1,4-4.3,3.9s-4-2.1-3.9-4.3l0,0c1.2-24-8-47.4-25.4-64c-1.7-1.5-1.9-4.1-0.3-5.8
	c1.5-1.7,4.1-1.9,5.8-0.3c0.1,0.1,0.1,0.1,0.2,0.2C131.8,32.7,142,58.4,140.6,84.9L140.6,84.9z"/>
<path class="st0" d="M103.3,160.4c-2.1-0.8-3.3-3.1-2.5-5.3c0.8-2.1,3.1-3.3,5.3-2.5l0,0c3.8,1.4,7.7,2.1,11.7,2.3
	c2.3,0.1,4.1,2,4,4.3c-0.1,2.3-2,4.1-4.3,4l0,0c-2.4-0.1-4.8-0.4-7.2-0.9C107.9,161.9,105.5,161.3,103.3,160.4L103.3,160.4z"/>
<path class="st0" d="M38.5,75.1c-1,2-3.5,2.8-5.6,1.8c-2-1-2.8-3.5-1.8-5.6c5.5-10.5,18.4-14.5,28.9-9c10.4,5.4,14.5,18.2,9.2,28.6
	c-1.6,3.1-2.9,6.4-3.9,9.8c-1,3.4-1.7,6.8-2,10.3c-0.2,2.3-2.3,3.9-4.5,3.7c-2.2-0.2-3.9-2.2-3.7-4.5c0.4-4,1.2-8,2.3-11.9
	c1.1-3.9,2.6-7.6,4.5-11.2c3.5-6.4,1.1-14.4-5.2-17.8c-6.4-3.5-14.4-1.1-17.8,5.2C38.7,74.7,38.6,74.9,38.5,75.1L38.5,75.1z"/>
<path class="st0" d="M99.7,2.2c2,1.2,2.6,3.7,1.5,5.7c-1.2,2-3.7,2.6-5.7,1.5c-0.1-0.1-0.2-0.1-0.3-0.2L94,8.4l-1.2-0.7
	c-1.9-1.3-2.4-3.8-1.2-5.7c1.2-1.8,3.5-2.4,5.4-1.4c0.3,0.2,0.8,0.5,1.3,0.8C98.7,1.6,99.2,1.9,99.7,2.2z"/>
<path class="st0" d="M89.9,119.6c-0.6-2.2,0.6-4.5,2.8-5.1c2.2-0.6,4.5,0.6,5.1,2.8c0.1,0.2,0.1,0.4,0.1,0.7c0.7,3.2,2,6.2,4,8.8
	c7.3,9.6,20.9,11.4,30.5,4.2c2.6-2,4.7-4.5,6.2-7.4c1-2,3.5-2.8,5.6-1.8c2,1,2.8,3.5,1.8,5.6c-7.5,14.8-25.6,20.6-40.4,13.1
	c-4-2.1-7.6-5-10.3-8.6C92.7,128.1,90.8,124,89.9,119.6L89.9,119.6z"/>
<path class="st0" d="M7.8,56.2c-1,2-3.5,2.8-5.6,1.8s-2.8-3.5-1.8-5.6c0.6-1.1,1.2-2.2,1.8-3.3S3.7,47,4.4,46c1.3-1.9,3.9-2.3,5.8-1
	c1.9,1.3,2.3,3.9,1,5.8c-0.6,0.9-1.2,1.8-1.8,2.7S8.3,55.3,7.8,56.2L7.8,56.2z"/>
<path class="st0" d="M3.8,99c0.3-2.3,2.3-3.9,4.6-3.6c2.3,0.3,3.9,2.3,3.6,4.6c-0.6,4.6-0.9,9.3-0.8,14c0,4.7,0.4,9.4,1,14
	c0.3,2.3-1.3,4.4-3.5,4.7s-4.4-1.3-4.7-3.5C2.6,119.1,2.6,109,3.8,99z"/>
<path class="st0" d="M99.9,166.4c2.1,0.8,3.2,3.2,2.4,5.3c-0.8,2.1-3.2,3.2-5.3,2.4c-1.3-0.5-2.5-0.9-3.6-1.5s-2.3-1.1-3.6-1.7
	c-16.2-8.3-28.1-23-32.8-40.6c-0.2-0.8-0.5-1.8-0.7-3c-0.2-1-0.4-2-0.6-3c-0.5-2.2,0.9-4.4,3.1-4.9s4.4,0.9,4.9,3.1
	c0,0.1,0.1,0.3,0.1,0.4c0.2,0.9,0.3,1.7,0.5,2.6c0.2,0.7,0.4,1.6,0.7,2.6c4.1,15.3,14.5,28.2,28.6,35.4c1,0.5,2,1,3.1,1.5
	S98.9,166,99.9,166.4L99.9,166.4z"/>
<path class="st0" d="M75.8,37.8c-1.9-1.2-2.5-3.8-1.3-5.7s3.8-2.5,5.7-1.3c24.4,15.5,32.9,47.1,19.7,72.8c-1,2-3.5,2.8-5.6,1.8
	c-2-1-2.8-3.5-1.8-5.6C103.9,77.9,96.6,51.1,75.8,37.8L75.8,37.8z"/>
<path class="st0" d="M23.3,41.7c-1.9,1.3-4.5,0.8-5.8-1.1c-1.3-1.9-0.8-4.5,1.1-5.8c13.2-9,29.6-12,45.2-8.1
	c2.2,0.4,3.7,2.6,3.3,4.8s-2.6,3.7-4.8,3.3c-0.2,0-0.3-0.1-0.5-0.1C48.6,31.5,34.6,34,23.3,41.7L23.3,41.7z"/>
<path class="st0" d="M135,29c-1.2-2-0.6-4.5,1.4-5.7c2-1.2,4.5-0.6,5.7,1.4l0,0c2.4,4,4.6,8.1,6.5,12.4c1.9,4.3,3.5,8.6,4.9,13.1
	c0.7,2.2-0.5,4.5-2.6,5.2s-4.5-0.5-5.2-2.6c0-0.1,0-0.2-0.1-0.2c-1.2-4.1-2.7-8.2-4.5-12.1C139.3,36.5,137.3,32.7,135,29z"/>
<path class="st0" d="M12.7,69.9c0.8-2.1,3.2-3.2,5.4-2.3s3.2,3.2,2.3,5.4c0,0.1-0.1,0.2-0.1,0.3c-0.8,1.8-1.5,3.6-2.3,5.5
	c-0.7,1.9-1.4,3.8-1.9,5.6c-0.4,2.3-2.6,3.7-4.8,3.3c-2.3-0.4-3.7-2.6-3.3-4.8C8,82.6,8.1,82.3,8.2,82c0.7-2.1,1.4-4.1,2.1-6.1
	C11,73.9,11.8,71.9,12.7,69.9L12.7,69.9z"/>
<path class="st0" d="M52.6,7.9c2.3,0.1,4.1,2,4,4.3c-0.1,2.3-2,4.1-4.3,4H51h-1.3c-2.3,0-4.2-1.8-4.2-4.1s1.8-4.2,4.1-4.2l0,0h1.5
	C51.1,7.9,52.6,7.9,52.6,7.9z"/>
<path class="st0" d="M162.4,136.4c-1,2-3.5,2.9-5.5,1.9c-2-1-2.9-3.5-1.9-5.5c1.6-3.2,3-6.4,4.3-9.7c1.3-3.3,2.4-6.6,3.4-10
	c0.6-2.2,2.9-3.5,5.1-2.9c2.2,0.6,3.5,2.9,2.9,5.1l0,0c-1.1,3.6-2.3,7.1-3.7,10.8C165.6,129.5,164.1,133,162.4,136.4L162.4,136.4z"
	/>
<path class="st0" d="M55.8,51.2c-2.3-0.4-3.7-2.6-3.3-4.8c0.4-2.3,2.6-3.7,4.8-3.3l0,0c1.8,0.3,3.7,0.8,5.4,1.4
	c1.8,0.6,3.5,1.3,5.2,2.2c13.6,7,21.8,21.4,20.9,36.7c-0.2,2.3-2.2,3.9-4.5,3.7c-2.2-0.2-3.8-2-3.7-4.2C81.4,69.2,73,56.7,60,52.3
	C58.7,51.8,57.3,51.4,55.8,51.2z"/>
<path class="st0" d="M46.5,79.2c1.1-2,3.6-2.8,5.6-1.8c2,1.1,2.8,3.6,1.8,5.6l0,0c-15.7,30.6-8.2,68,18.2,90.1
	c1.8,1.5,2,4.1,0.5,5.8c-1.5,1.8-4.1,2-5.8,0.5C37.5,154.9,29,113.2,46.5,79.2z"/>
<path class="st0" d="M209.2,149.6V34.9h73.3v16.4h-55.9v33.8h47.7v15.5h-47.7v49L209.2,149.6z"/>
<path class="st0" d="M293.6,51.3V34.9h16.4v16.4H293.6z M293.6,149.6V67.9h16.4v81.6H293.6z"/>
<path class="st0" d="M324.2,149.6V67.9h16.4v8.7c5.2-6.4,12.3-9.6,21.4-9.6c6.3,0.1,12.4,2.3,17.2,6.3l-11.9,14.2
	c-3.1-2.5-6.8-3.9-10.8-4c-4-0.2-8,1.3-11,4c-3.3,3.1-5,7.4-5,13v49.1L324.2,149.6z"/>
<path class="st0" d="M374.8,135.9l11.4-11.3c6.8,6.8,16.1,10.6,25.8,10.5c10.7,0,16.1-3.5,16.1-10.5c0-4.7-3.3-7.4-10-8l-14.5-1.3
	c-7-0.7-12.6-2.9-16.8-6.8c-4.5-4.2-6.8-9.7-6.8-16.4c0-8,2.9-14.3,8.7-18.8c5.5-4.2,12.7-6.3,21.8-6.3c12.6,0,23.2,3.7,32,11.1
	L432.5,90c-7.2-5-14.5-7.6-21.9-7.6c-9.3,0-14,3.3-14,9.8c0,4.6,3.6,7.2,10.8,7.7l13.5,1c15.8,1.2,23.7,9.3,23.7,24.5
	c0.2,7.4-3.4,14.3-9.6,18.4c-6.4,4.5-14.5,6.8-24.2,6.8C397.2,150.6,385.2,145.7,374.8,135.9z"/>
<path class="st0" d="M458.9,67.9V43.1h16.4v24.8h11.9v12.6h-11.9V128c0,4.1,1.9,6.1,5.8,6.1h6.1v15.5h-8.5c-5.9,0-10.7-1.8-14.3-5.3
	c-3.6-3.5-5.5-8.5-5.5-14.8v-49h-8.2V67.9H458.9z"/>
<path class="st0" d="M603.8,149.6l-8.8-25.6h-43.5l-8.9,25.6h-18.4L566,34.9h14.5l41.7,114.7H603.8z M556.4,108.5h33.5l-16.6-50.1
	H573L556.4,108.5z"/>
<path class="st0" d="M674.2,149.6v-8.5c-5.3,6.1-13,9.6-21.1,9.5c-11.2,0-19.2-4.7-24.2-14.2c-2.4-4.4-3.5-13.6-3.5-27.7
	c0-8.3,0.2-13.6,0.5-16.1c0.7-6.3,2.4-11.3,5.3-15c5.5-7.1,12.8-10.6,21.9-10.6c7.3,0,14.3,3.2,21.1,9.7V34.9h16.4v114.7H674.2z
	 M658.1,83.4c-6.9,0-11.5,2.6-13.8,7.9c-1.6,3.6-2.4,9.4-2.4,17.4c0,8.2,0.8,14,2.4,17.6c2.4,5.3,7,7.9,13.8,7.9
	c6.8,0,11.4-2.7,13.8-8.2c1.5-3.6,2.2-9.3,2.2-17.2s-0.8-13.6-2.2-17.1C669.4,86.1,664.8,83.4,658.1,83.4z"/>
<path class="st0" d="M728.4,149.6l-30-81.7h17.4l19.2,57.2h0.3l19.2-57.2h17.4l-30,81.6H728.4z"/>
<path class="st0" d="M821.3,149.6v-7.2c-3.3,5.5-10.1,8.2-20.3,8.2c-9,0-16.1-2.4-21.4-7.2c-5.1-4.5-7.6-10.4-7.6-17.7
	c0-6.9,2.3-12.5,6.8-16.9c4.8-4.8,11.4-7.3,19.8-7.2h22.7v-8.5c0-3.9-1.3-6.6-3.9-8.1s-6.9-2.3-12.9-2.3c-7.7,0-12.9,2.1-15.5,6.3
	l-12.9-9.8C782,71,791.1,67,803.8,67c22.7,0,34,9,34,26.9v55.7L821.3,149.6z M821.3,120.9v-6h-19.6c-9.5,0-14.2,3.3-14.2,9.8
	c0,6.9,5.2,10.3,15.5,10.3c6.9,0,11.3-0.6,13.4-1.8C819.7,131.5,821.4,127.4,821.3,120.9z"/>
<path class="st0" d="M851.3,149.6V67.9h16.4v8.7c5.2-6.4,12.3-9.6,21.4-9.6c6.9-0.1,13.5,2.5,18.5,7.2c5.9,5.4,8.9,12.4,8.9,21.1
	v54.3h-16.4V101c0-5.5-1.5-9.8-4.5-12.9c-3-3.1-7.2-4.9-11.6-4.7c-4.4-0.2-8.7,1.5-11.8,4.7c-3,3.1-4.5,7.4-4.5,12.9v48.6H851.3z"/>
<path class="st0" d="M933.5,67.9V43.1h16.4v24.8h11.9v12.6h-11.9V128c0,4.1,1.9,6.1,5.8,6.1h6.1v15.5h-8.5c-5.9,0-10.7-1.8-14.3-5.3
	c-3.6-3.5-5.5-8.5-5.5-14.8v-49h-8.2V67.9H933.5z"/>
<path class="st0" d="M1016.9,149.6v-7.2c-3.3,5.5-10.1,8.2-20.3,8.2c-9,0-16.1-2.4-21.4-7.2c-5.1-4.5-7.6-10.4-7.6-17.7
	c0-6.9,2.3-12.5,6.8-16.9c4.8-4.8,11.4-7.3,19.8-7.2h22.7v-8.5c0-3.9-1.3-6.6-3.9-8.1c-2.6-1.6-6.9-2.3-12.9-2.3
	c-7.7,0-12.9,2.1-15.5,6.3l-12.9-9.8C977.5,71,986.7,67,999.4,67c22.7,0,34,9,34,26.9v55.7L1016.9,149.6z M1016.9,120.9v-6h-19.6
	c-9.4,0-14.2,3.3-14.2,9.8c0,6.9,5.2,10.3,15.5,10.3c6.9,0,11.3-0.6,13.4-1.8C1015.3,131.5,1016.9,127.4,1016.9,120.9z"/>
<path class="st0" d="M1092.9,149.4V141c-5.3,6.1-13,9.6-21.1,9.5c-9.2,0-16.4-3.3-21.6-10c-3.1-4-5-9-5.6-15.1
	c-0.3-2.4-0.5-7.9-0.5-16.6c0-8.8,0.2-14.3,0.5-16.6c0.7-6.2,2.5-11.3,5.6-15.3c5.2-6.7,12.3-10,21.6-10c7.9,0,15,3.2,21.1,9.7v-8.7
	h16.4v79.7c0,11.7-3.5,20.8-10.6,27.2c-6.4,5.8-14.7,8.7-24.8,8.7c-10.8,0-20.3-4.6-28.3-13.7l12.7-10.1c4.9,4.9,10.3,7.4,16,7.4
	c5.6,0,10.1-1.6,13.5-4.7S1093,155,1092.9,149.4z M1060.6,108.8c-0.1,4.3,0.1,8.7,0.6,13c0.4,2.2,1.3,4.2,2.7,6
	c5.7,7.2,16,8.4,23.2,2.7c1-0.8,1.9-1.7,2.7-2.7c1.4-1.8,2.3-3.8,2.7-6c0.5-4.3,0.7-8.7,0.6-13c0.1-4.4-0.1-8.8-0.6-13.2
	c-0.4-2.2-1.3-4.2-2.7-6c-5.7-7.2-16-8.4-23.2-2.7c-1,0.8-1.9,1.7-2.7,2.7c-1.4,1.8-2.3,3.8-2.7,6
	C1060.6,100,1060.5,104.4,1060.6,108.8z"/>
<path class="st0" d="M1186.2,115h-50.9c0,6.4,1.8,11.4,5.4,14.9c3.6,3.5,8.3,5.2,14.1,5.2c6.8,0,13.3-2.8,17.9-7.9l11.9,10.2
	c-7.6,8.8-17.4,13.2-29.5,13.2c-10.1,0-18.2-2.7-24.3-8.2c-7.9-7-11.9-18.1-11.9-33.3c0-14.6,3.7-25.6,11-32.9
	c6-6.1,13.6-9.2,22.7-9.2c8.8-0.2,17.4,3.2,23.7,9.3c6.7,6.6,10,14.9,10,25.1L1186.2,115z M1135.3,101.5h34.5
	c-0.2-6-1.9-10.7-5.1-14c-3.2-3.3-7.6-5.1-12.2-5c-4.6-0.1-9,1.7-12.2,5C1137.1,90.8,1135.4,95.4,1135.3,101.5L1135.3,101.5z"/>
</svg>
